<?xml version="1.0" standalone="no"?>
<!DOCTYPE svg PUBLIC "-//W3C//DTD SVG 20010904//EN"
 "http://www.w3.org/TR/2001/REC-SVG-20010904/DTD/svg10.dtd">
<svg version="1.0" xmlns="http://www.w3.org/2000/svg"
 width="471.000000pt" height="473.000000pt" viewBox="0 0 471.000000 473.000000"
 preserveAspectRatio="xMidYMid meet">

<g transform="translate(0.000000,473.000000) scale(0.100000,-0.100000)"
fill="#000000" stroke="none">
<path d="M2503 4682 c4 -5 16 -8 27 -5 32 9 342 -42 405 -66 11 -4 58 -20 105
-35 138 -45 190 -68 190 -85 0 -13 2 -13 9 -2 5 7 14 10 20 7 6 -4 9 -11 6
-16 -3 -5 0 -12 6 -16 8 -4 9 -3 5 4 -15 25 32 9 139 -47 63 -33 110 -63 110
-71 0 -9 8 -14 20 -13 22 3 62 -23 52 -33 -4 -4 -15 -1 -24 7 -16 13 -17 12
-4 -4 7 -9 25 -23 40 -30 18 -8 27 -21 29 -42 4 -33 22 -60 22 -33 0 24 21 27
65 7 22 -10 37 -19 33 -19 -4 0 -3 -11 2 -24 6 -17 5 -26 -3 -30 -7 -3 0 -3
14 0 20 4 33 -1 49 -18 13 -13 20 -16 16 -8 -7 13 35 -31 65 -68 6 -7 15 -10
20 -6 6 3 13 -3 16 -15 3 -12 10 -21 15 -21 11 0 47 -41 48 -54 0 -5 -11 1
-26 15 -21 19 -24 20 -18 5 5 -14 4 -17 -4 -12 -17 10 -15 -1 5 -23 9 -11 21
-17 26 -14 5 3 4 -4 -3 -17 -11 -21 -13 -20 -63 33 -29 29 -83 76 -122 103
-38 27 -81 59 -95 71 -14 12 -41 35 -60 52 -19 17 -39 31 -43 31 -5 0 -23 11
-40 24 -52 39 -192 110 -342 174 -180 76 -266 104 -375 121 -36 6 -80 15 -98
20 -41 12 -122 59 -122 70 0 17 -56 31 -125 32 -73 2 -127 -13 -123 -32 2 -6
-3 -14 -11 -17 -9 -3 -11 0 -6 7 4 8 -6 7 -30 -3 -47 -20 -135 -20 -199 -1
-83 25 -200 17 -155 -11 8 -4 7 -9 -2 -15 -9 -6 -1 -9 24 -9 55 0 145 -28 156
-48 6 -11 5 -23 -4 -35 -11 -15 -14 -16 -25 -2 -7 9 -19 14 -27 11 -8 -3 -11
-1 -8 4 7 11 -42 26 -52 16 -4 -3 4 -6 16 -6 13 0 20 -4 16 -11 -4 -6 -13 -8
-21 -5 -8 3 -14 1 -14 -4 0 -16 -26 -11 -41 7 -12 15 -12 16 3 11 10 -4 19 -1
22 9 5 13 0 14 -27 9 -22 -4 -44 -1 -63 9 -34 17 -54 19 -54 5 0 -5 6 -10 13
-10 8 0 27 -11 42 -25 30 -25 28 -28 -20 -38 -13 -3 -9 -5 11 -6 16 0 35 4 41
10 8 8 19 6 39 -5 83 -47 89 -53 89 -81 0 -26 -3 -28 -50 -31 -27 -2 -88 -9
-135 -14 -47 -6 -114 -12 -150 -14 -36 -2 -93 -11 -128 -20 -35 -9 -94 -19
-130 -22 -37 -3 -71 -10 -77 -15 -5 -5 -17 -9 -28 -9 -10 0 -15 -4 -12 -10 3
-5 22 -10 41 -10 22 0 34 -5 34 -14 0 -14 -86 -56 -117 -56 -17 0 -57 -20 -41
-20 19 0 115 24 133 33 11 6 31 12 45 14 14 1 43 5 65 8 l40 5 -30 -13 c-16
-7 -46 -20 -65 -29 -88 -41 -141 -56 -215 -62 -44 -3 -81 -5 -83 -6 -2 0 0 -4
3 -10 3 -5 0 -7 -8 -4 -9 3 -22 -4 -30 -17 -20 -28 -47 -19 -47 16 0 28 3 30
32 14 17 -9 20 -9 15 4 -7 18 33 57 88 86 l40 20 -38 -4 c-50 -6 -47 9 10 45
50 31 77 37 88 20 4 -7 14 -5 28 5 12 8 29 15 38 15 9 0 22 7 29 15 7 8 23 15
36 15 15 0 24 6 24 15 0 8 6 15 14 15 8 0 18 5 22 11 7 12 -20 8 -60 -7 -9 -3
-16 -2 -16 3 0 10 52 34 115 53 22 7 55 19 73 28 17 8 35 12 39 9 3 -4 1 -7
-5 -7 -6 0 -18 -8 -28 -17 -10 -10 -25 -18 -33 -18 -9 0 -15 -5 -14 -10 4 -17
43 -17 78 -1 18 9 40 16 48 16 9 0 19 5 22 10 3 6 15 10 26 10 10 0 19 5 19
11 0 6 -14 9 -35 6 -47 -6 -50 13 -6 36 20 11 52 32 72 48 20 16 46 29 57 29
12 0 34 12 49 26 l28 26 -40 -7 c-22 -4 -51 -18 -65 -30 -41 -38 -132 -89
-190 -109 -30 -10 -59 -23 -65 -27 -5 -5 -15 -9 -23 -9 -24 0 -205 -82 -234
-106 -15 -12 -73 -47 -130 -78 -177 -97 -212 -123 -368 -277 -233 -229 -319
-348 -460 -635 -65 -131 -90 -201 -124 -344 -7 -30 -26 -102 -41 -160 -15 -58
-29 -127 -30 -155 -2 -27 -6 -93 -11 -145 -4 -52 -7 -102 -5 -112 1 -9 -2 -19
-7 -22 -5 -3 -3 -28 5 -58 7 -29 11 -68 8 -88 -11 -60 -22 -13 -29 128 -4 74
-10 140 -13 148 -3 8 -1 14 3 14 5 0 9 12 10 28 0 15 3 41 7 57 3 17 8 66 12
110 8 97 8 99 18 106 4 3 9 16 12 28 2 13 14 43 26 67 22 47 30 115 17 151 -4
14 -3 25 4 29 7 5 8 3 3 -6 -5 -8 -4 -11 2 -7 6 4 13 16 16 28 4 15 2 19 -9
15 -18 -7 -18 9 1 28 16 16 20 30 6 22 -22 -14 -18 25 4 42 13 11 21 23 17 27
-4 4 4 4 18 1 21 -6 22 -5 7 4 -9 6 -15 16 -11 21 4 6 11 5 20 -2 9 -7 14 -8
13 -3 -1 5 0 11 1 14 7 14 6 80 -2 80 -11 0 -10 12 2 30 9 13 11 13 21 0 9
-12 10 -10 6 8 -7 29 1 52 18 52 7 0 12 10 11 23 -2 21 25 80 45 102 12 13 11
38 -1 30 -6 -4 -20 -26 -31 -51 -12 -24 -25 -44 -29 -44 -4 0 -11 -11 -14 -24
-3 -13 -21 -50 -39 -82 -18 -33 -45 -90 -61 -129 -16 -38 -35 -83 -41 -100
-30 -72 -42 -111 -37 -124 3 -9 0 -11 -8 -6 -8 5 -11 4 -7 -2 4 -6 0 -30 -9
-54 -19 -53 -40 -155 -63 -307 -13 -83 -17 -165 -16 -300 3 -243 11 -330 36
-364 20 -29 10 -48 -14 -24 -17 17 -50 164 -50 224 0 23 -5 42 -10 42 -9 0 -8
-19 9 -200 18 -188 132 -549 236 -747 61 -117 201 -327 282 -423 281 -336 664
-590 1112 -739 373 -123 774 -144 1175 -62 165 34 469 157 654 265 28 16 70
40 95 54 210 117 521 401 677 618 168 233 288 487 352 741 31 123 35 144 35
206 0 31 3 52 6 46 4 -6 10 4 14 22 3 18 2 37 -4 43 -15 15 -12 67 5 80 17 13
24 159 7 178 -7 9 -6 19 4 33 8 11 12 32 9 50 -2 16 -7 75 -10 130 -23 422
-189 856 -473 1234 -136 181 -371 396 -587 536 -63 41 -299 164 -350 183 -16
6 -66 25 -110 42 -91 35 -312 95 -427 115 -114 21 -252 30 -245 17z m-439
-101 c7 -11 -14 -20 -31 -13 -7 2 -13 8 -13 13 0 12 37 12 44 0z m437 -22
c-13 -10 -32 -19 -43 -19 -11 0 -37 -17 -57 -38 -21 -21 -43 -36 -49 -34 -7 2
-19 -4 -28 -13 -9 -9 -23 -14 -31 -11 -17 7 -63 -3 -63 -13 0 -3 18 -7 40 -7
50 -2 55 -6 38 -33 -15 -25 -30 -22 -38 7 -4 18 -7 19 -22 8 -10 -7 -15 -15
-12 -18 3 -4 1 -9 -5 -13 -7 -3 -11 3 -11 15 0 32 -30 21 -51 -17 -10 -18 -14
-33 -9 -33 6 0 3 -11 -6 -25 -20 -30 -38 -33 -29 -5 5 15 2 20 -11 20 -17 0
-16 1 1 14 10 7 16 20 12 28 -3 8 4 26 16 39 13 13 21 34 19 46 -5 35 58 58
118 43 43 -11 45 -10 70 18 32 38 64 55 120 62 56 7 61 3 31 -21z m-144 0 c2
-8 -5 -25 -16 -38 -18 -24 -18 -24 -72 -8 -30 9 -67 18 -83 19 -16 2 -31 8
-33 13 -2 6 28 10 77 10 49 0 84 5 92 13 15 15 32 11 35 -9z m304 -13 l29 -25
-47 -3 -48 -3 62 -10 c50 -9 60 -8 51 2 -14 17 -5 16 40 -4 l37 -18 -70 -4
-70 -3 60 -14 c33 -7 93 -20 133 -28 40 -9 80 -20 90 -25 9 -5 36 -12 60 -16
24 -4 41 -12 39 -18 -6 -19 -54 -26 -169 -22 -61 1 -125 -1 -141 -6 -49 -14
-259 -13 -289 1 -35 16 -37 34 -3 26 13 -3 42 1 64 10 22 9 46 14 53 11 8 -4
7 -6 -4 -6 -10 -1 -18 -6 -18 -11 0 -14 72 -1 82 13 4 7 11 7 21 -1 12 -10 27
-10 73 1 l59 14 -55 11 c-30 7 -92 11 -137 10 -45 -1 -85 1 -89 5 -4 4 1 16
10 26 15 16 23 18 43 10 22 -8 24 -8 14 5 -10 12 -5 22 25 55 42 48 56 50 95
17z m304 -96 c3 -5 -1 -10 -9 -10 -9 0 -16 5 -16 10 0 6 4 10 9 10 6 0 13 -4
16 -10z m122 -46 c-3 -3 -12 -4 -19 -1 -8 3 -5 6 6 6 11 1 17 -2 13 -5z m93
-34 c0 -13 -11 -13 -30 0 -12 8 -11 10 8 10 12 0 22 -4 22 -10z m68 -72 c46
-28 91 -64 100 -80 9 -15 28 -30 43 -33 15 -3 44 -15 66 -27 l38 -20 -40 7
c-22 4 -58 15 -80 24 -30 14 -62 17 -127 15 -87 -2 -155 7 -167 23 -3 4 -10 8
-16 9 -17 1 -95 39 -95 45 0 17 34 16 72 -1 24 -11 52 -19 63 -19 11 0 14 3 8
6 -7 2 -13 8 -13 12 0 9 102 -9 110 -19 9 -12 40 -19 40 -9 0 5 -8 12 -17 16
-20 6 -106 44 -112 49 -2 2 2 10 9 19 8 10 9 15 1 15 -6 0 -11 5 -11 10 0 23
51 7 128 -42z m59 6 c-7 -7 -37 7 -37 17 0 6 9 5 21 -1 11 -7 19 -14 16 -16z
m-1937 -24 c0 -5 -2 -10 -4 -10 -3 0 -8 5 -11 10 -3 6 -1 10 4 10 6 0 11 -4
11 -10z m1675 -98 c22 -9 43 -20 46 -25 3 -4 12 -7 19 -5 8 2 20 -9 27 -24 9
-17 23 -28 36 -29 46 -2 69 -6 75 -15 4 -5 19 -15 35 -23 15 -8 27 -18 27 -23
0 -13 -40 -9 -41 5 0 9 -2 9 -6 -1 -3 -9 -12 -7 -30 8 -14 11 -33 20 -43 20
-9 0 -36 13 -58 30 -23 16 -47 31 -54 32 -7 2 -21 11 -31 20 -11 9 -35 24 -53
33 -69 33 -29 30 51 -3z m-85 -18 c76 -32 102 -45 98 -49 -2 -3 -24 3 -48 12
-33 13 -45 14 -48 5 -5 -16 -22 -15 -22 2 0 7 -10 26 -22 42 l-23 29 25 -18
c14 -9 32 -20 40 -23z m-1386 -78 c-23 -16 -126 -57 -131 -52 -3 3 92 52 117
60 29 9 34 6 14 -8z m-550 -18 c-23 -28 -36 -38 -49 -37 -9 0 54 59 64 59 2 0
-4 -10 -15 -22z m56 2 c0 -5 -4 -10 -9 -10 -5 0 -18 -3 -28 -6 -16 -5 -16 -4
1 10 23 18 36 20 36 6z m2840 -20 c0 -5 -2 -10 -4 -10 -3 0 -8 5 -11 10 -3 6
-1 10 4 10 6 0 11 -4 11 -10z m-458 -17 c7 -6 57 -30 110 -52 53 -23 109 -48
124 -56 16 -8 40 -11 57 -8 25 5 28 3 25 -13 -3 -15 -11 -19 -42 -17 -21 2
-44 7 -50 11 -6 5 -40 19 -76 32 -36 12 -79 29 -97 36 -17 8 -33 14 -36 14 -3
0 -23 16 -44 35 -37 33 -37 34 -11 31 15 -1 33 -7 40 -13z m235 -35 c59 -58
70 -84 21 -46 -18 14 -61 39 -95 57 -35 17 -63 33 -63 35 0 1 19 3 42 4 39 2
47 -3 95 -50z m-2597 28 c0 -13 -71 -46 -99 -46 -16 0 -10 21 10 31 16 8 70
26 82 28 4 1 7 -5 7 -13z m310 -20 c-19 -18 -132 -56 -127 -43 2 6 32 20 68
33 79 27 76 27 59 10z m670 -10 c0 -3 -4 -8 -10 -11 -5 -3 -10 -1 -10 4 0 6 5
11 10 11 6 0 10 -2 10 -4z m190 -26 c0 -14 -7 -20 -22 -20 -20 0 -21 1 -3 20
10 11 20 20 22 20 1 0 3 -9 3 -20z m-1300 2 c0 -14 -23 -32 -42 -32 -25 0 -23
15 5 28 27 13 37 14 37 4z m-83 -32 c-5 -20 13 -26 63 -22 8 1 22 -1 30 -4 12
-5 11 -8 -5 -14 -19 -8 -19 -9 3 -9 35 -1 26 -18 -21 -36 -44 -17 -122 -72
-82 -58 11 4 40 19 64 35 25 15 53 28 63 28 21 0 53 17 85 43 11 11 29 17 40
14 15 -3 14 -5 -7 -14 -14 -6 -36 -23 -49 -37 -14 -14 -29 -26 -35 -26 -6 0
-31 -16 -55 -35 -24 -19 -72 -48 -107 -65 -34 -16 -72 -39 -83 -51 -11 -12
-24 -18 -32 -14 -8 5 -10 4 -5 -3 4 -7 3 -12 -2 -12 -5 0 -30 -16 -56 -36 -25
-21 -49 -34 -53 -30 -4 3 2 12 12 20 17 12 16 13 -14 19 -18 4 -31 13 -31 22
0 17 17 20 22 4 2 -7 23 2 50 20 25 17 51 31 57 31 6 0 20 18 31 40 12 23 32
50 45 62 13 12 22 25 19 29 -2 4 0 10 6 14 5 3 10 11 10 16 0 6 -10 3 -22 -5
-37 -26 -45 -18 -13 12 17 15 38 39 48 55 21 32 31 35 24 7z m1769 -5 c-14
-14 -16 -14 -16 -2 0 9 6 17 13 20 19 7 21 -1 3 -18z m-1421 -55 c-29 -57 -39
-65 -22 -18 11 29 36 68 44 68 2 0 -8 -22 -22 -50z m1485 29 c0 -5 -4 -9 -10
-9 -5 0 -10 7 -10 16 0 8 5 12 10 9 6 -3 10 -10 10 -16z m-290 -11 c0 -6 -7
-7 -16 -4 -9 3 -18 6 -20 6 -3 0 -3 4 1 10 7 11 35 2 35 -12z m-610 2 c0 -5
-12 -10 -27 -9 -25 0 -26 1 -8 9 27 12 35 12 35 0z m1620 -11 c0 -6 -4 -7 -10
-4 -5 3 -10 11 -10 16 0 6 5 7 10 4 6 -3 10 -11 10 -16z m-1070 -15 c0 -8 7
-14 15 -14 8 0 15 -4 15 -9 0 -12 -66 -19 -84 -9 -10 6 -18 2 -25 -9 -6 -10
-11 -12 -11 -5 0 6 -3 11 -7 11 -22 -4 -43 2 -43 11 0 6 12 10 28 9 31 -2 77
14 87 31 8 13 25 3 25 -16z m1673 19 c-21 -7 -15 -26 18 -63 21 -24 28 -28 24
-15 -5 16 -4 18 7 7 9 -9 10 -17 2 -30 -14 -21 -29 -18 -29 6 -1 9 -7 16 -14
14 -6 -1 -17 3 -24 11 -57 61 -58 74 -5 74 18 0 27 -2 21 -4z m-1169 -36 c-3
-9 -17 -11 -42 -8 l-37 5 30 7 c47 11 55 10 49 -4z m643 -39 c24 -21 40 -38
37 -38 -4 0 -22 14 -41 30 -39 34 -49 36 -75 13 -21 -18 -25 -3 -6 26 15 24
32 18 85 -31z m-1320 12 c10 0 14 -6 10 -20 -4 -17 0 -20 26 -22 77 -4 97 -3
97 4 0 4 -6 8 -12 8 -21 1 24 30 45 30 19 0 19 -1 -1 -19 -12 -10 -22 -20 -22
-23 0 -2 19 -4 42 -4 43 1 62 -16 31 -28 -10 -4 -53 -11 -97 -16 -120 -14
-116 -11 -111 -83 2 -34 5 -75 5 -90 0 -17 4 -26 11 -22 6 4 13 -3 16 -15 4
-16 11 -20 27 -16 11 3 35 6 51 6 22 0 26 3 16 9 -10 6 7 9 49 10 41 0 66 5
71 13 5 7 9 9 9 5 0 -4 10 -3 21 4 20 10 21 9 15 -16 -4 -16 -2 -33 5 -41 7
-8 9 -17 6 -20 -3 -3 -13 8 -23 25 -10 17 -23 31 -28 31 -5 0 -7 -3 -3 -6 3
-3 -6 -16 -20 -28 -21 -18 -37 -22 -92 -21 -36 0 -75 4 -85 9 -14 7 -17 6 -12
-2 5 -8 -1 -12 -16 -12 -34 0 -43 11 -44 50 -1 19 -3 74 -5 123 -2 68 -6 87
-18 87 -11 0 -10 4 4 20 10 11 13 20 7 20 -5 0 -9 8 -7 18 2 9 4 28 5 42 2 18
4 20 7 8 2 -10 11 -18 20 -18z m236 18 c4 -10 7 -10 14 -1 11 16 52 -15 58
-44 5 -28 -3 -33 -35 -21 -18 7 -21 11 -11 17 9 6 5 10 -14 15 -14 4 -30 4
-34 2 -4 -3 -6 6 -3 19 5 27 17 33 25 13z m1143 -27 c49 -35 79 -69 71 -78 -4
-4 -13 0 -20 9 -6 8 -28 24 -47 36 -34 20 -69 62 -52 62 5 0 27 -13 48 -29z
m-1892 -5 c-3 -9 -10 -13 -15 -10 -5 3 -3 11 4 19 15 16 19 13 11 -9z m56 8
c0 -17 -22 -14 -28 4 -2 7 3 12 12 12 9 0 16 -7 16 -16z m204 -15 c18 -21 18
-22 -8 -15 -17 4 -26 2 -26 -5 0 -24 -34 -89 -47 -89 -15 0 -15 -6 -4 -72 4
-27 5 -48 2 -48 -16 0 -42 87 -39 127 3 41 2 43 -25 43 -22 0 -28 -4 -23 -15
6 -17 -9 -21 -19 -5 -5 8 -11 8 -20 0 -11 -9 -12 -7 -8 10 4 13 11 19 20 16 8
-3 21 0 29 8 10 11 11 15 1 19 -26 10 10 27 66 31 32 2 61 6 64 10 10 10 18 7
37 -15z m190 -6 c-1 -16 -3 -31 -3 -35 -2 -20 -21 -5 -21 17 0 14 -6 25 -12
26 -7 1 -2 5 12 9 14 4 25 8 25 9 1 1 0 -11 -1 -26z m1996 -5 c0 -18 -2 -20
-9 -8 -6 8 -7 18 -5 22 9 14 14 9 14 -14z m-1324 -7 c-17 -18 -16 -19 18 -15
37 3 50 -10 19 -18 -23 -6 -95 14 -97 27 -1 8 29 19 68 24 5 0 1 -8 -8 -18z
m-1718 -33 c-8 -12 -30 -31 -49 -41 -19 -11 -35 -23 -37 -28 -2 -5 -11 -9 -20
-9 -15 1 -15 2 1 14 9 7 17 16 17 20 0 13 44 45 62 46 9 0 20 5 23 10 3 6 9
10 12 10 3 0 -1 -10 -9 -22z m1636 13 c3 -5 -1 -14 -9 -21 -10 -9 -15 -9 -15
-1 0 6 6 11 13 11 8 0 7 4 -3 10 -9 6 -10 10 -3 10 6 0 14 -4 17 -9z m-764
-17 c0 -8 -5 -12 -10 -9 -6 4 -8 11 -5 16 9 14 15 11 15 -7z m2150 12 c0 -3
-4 -8 -10 -11 -5 -3 -10 -1 -10 4 0 6 5 11 10 11 6 0 10 -2 10 -4z m55 -5 c3
-5 1 -12 -4 -15 -13 -8 -42 4 -35 15 7 12 31 12 39 0z m-1487 -11 c7 0 11 -4
8 -8 -3 -5 -15 -8 -28 -6 -13 1 -26 3 -30 3 -5 1 -8 6 -8 12 0 7 9 9 23 5 12
-3 28 -6 35 -6z m127 -5 c17 -7 23 -14 14 -14 -9 -1 -21 -11 -28 -24 -6 -12
-24 -29 -39 -38 -29 -16 -108 -161 -98 -178 3 -5 -1 -15 -10 -22 -15 -12 -16
-9 -9 31 4 25 13 56 20 70 7 14 15 37 19 53 3 15 11 27 16 27 6 0 10 5 10 11
0 16 32 83 44 91 15 11 26 9 61 -7z m340 -5 c18 -7 18 -8 -7 -15 -31 -8 -58
-1 -58 15 0 12 36 12 65 0z m835 6 c0 -3 -4 -8 -10 -11 -5 -3 -10 -1 -10 4 0
6 5 11 10 11 6 0 10 -2 10 -4z m-783 -12 c-3 -3 -12 -4 -19 -1 -8 3 -5 6 6 6
11 1 17 -2 13 -5z m1003 -9 c7 -9 8 -15 2 -15 -5 0 -12 7 -16 15 -3 8 -4 15
-2 15 2 0 9 -7 16 -15z m-2700 -10 c-12 -15 -30 -12 -30 6 0 5 10 9 21 9 18 0
19 -2 9 -15z m460 0 c0 -8 -4 -15 -10 -15 -5 0 -10 7 -10 15 0 8 5 15 10 15 6
0 10 -7 10 -15z m555 5 c-3 -5 -13 -10 -21 -10 -8 0 -12 5 -9 10 3 6 13 10 21
10 8 0 12 -4 9 -10z m155 -11 c0 -5 -6 -9 -14 -9 -8 0 -17 -6 -19 -12 -3 -7
-6 -1 -6 14 -1 21 3 25 19 21 11 -3 20 -9 20 -14z m-969 1 c16 0 29 -4 29 -10
0 -5 -7 -10 -16 -10 -8 0 -13 -4 -9 -9 3 -5 0 -13 -6 -17 -8 -4 -9 -3 -5 4 4
7 3 12 -3 12 -5 0 -12 -6 -15 -12 -3 -7 -4 -6 -3 4 3 24 -16 24 -24 0 -6 -16
3 -27 47 -60 30 -22 49 -42 42 -44 -6 -2 9 -19 35 -37 25 -19 48 -40 51 -47 7
-17 1 -18 -16 -1 -56 52 -150 103 -169 91 -6 -3 -22 -1 -35 7 -23 12 -23 14
-9 36 9 13 11 23 5 23 -6 0 -6 9 2 25 6 13 14 24 17 23 3 -1 14 2 24 7 15 6
16 10 5 17 -9 7 -8 8 5 4 10 -3 32 -6 48 -6z m-1041 -20 c0 -5 -5 -10 -11 -10
-5 0 -7 5 -4 10 3 6 8 10 11 10 2 0 4 -4 4 -10z m1360 0 c0 -5 -5 -10 -11 -10
-5 0 -7 5 -4 10 3 6 8 10 11 10 2 0 4 -4 4 -10z m-439 -14 c-6 -7 -9 -21 -5
-30 5 -12 -3 -20 -30 -31 -44 -19 -50 -19 -42 0 3 10 -1 15 -11 15 -12 0 -14
3 -6 11 8 8 17 8 31 0 20 -11 42 2 28 16 -3 4 4 12 17 19 30 16 31 16 18 0z
m2419 -18 c0 -5 5 -6 12 -2 6 4 8 3 5 -3 -3 -5 6 -27 20 -49 14 -21 23 -37 20
-34 -73 63 -117 105 -117 111 0 4 14 3 30 -2 17 -6 30 -15 30 -21z m-1895 2
c3 -5 1 -10 -4 -10 -6 0 -11 5 -11 10 0 6 2 10 4 10 3 0 8 -4 11 -10z m2085
-21 c0 -5 -7 -6 -15 -3 -8 4 -15 13 -15 21 0 13 3 13 15 3 8 -7 15 -16 15 -21z
m-1807 10 c-12 -12 -142 -26 -131 -14 10 10 66 23 108 24 24 1 31 -2 23 -10z
m1520 -7 c39 -26 69 -61 62 -72 -3 -5 -12 -7 -20 -4 -8 4 -12 10 -9 15 3 5 -1
10 -8 10 -7 1 -17 2 -23 4 -5 1 -16 3 -23 3 -7 1 -11 6 -7 11 3 5 1 12 -5 16
-12 7 -14 35 -2 35 4 0 19 -8 35 -18z m-913 -2 c9 -6 20 -5 30 3 8 6 -9 -14
-38 -44 -47 -47 -73 -89 -95 -151 -9 -27 -24 -22 -24 8 0 18 2 22 8 13 8 -14
21 11 36 69 5 22 24 61 50 105 6 9 15 9 33 -3z m-2085 -25 c-16 -14 -37 -25
-45 -25 -11 1 -8 6 9 20 12 11 27 18 31 15 5 -3 11 -1 15 5 3 5 9 10 13 10 4
-1 -6 -12 -23 -25z m-315 -5 c-6 -11 -13 -20 -16 -20 -2 0 0 9 6 20 6 11 13
20 16 20 2 0 0 -9 -6 -20z m1884 4 c20 -20 20 -23 -1 -19 -10 2 -21 4 -25 4
-11 1 -10 31 1 31 5 0 17 -7 25 -16z m136 6 c0 -5 -4 -10 -10 -10 -5 0 -10 5
-10 10 0 6 5 10 10 10 6 0 10 -4 10 -10z m455 0 c3 -5 2 -10 -4 -10 -5 0 -13
5 -16 10 -3 6 -2 10 4 10 5 0 13 -4 16 -10z m-1693 -7 c-6 -2 -10 -9 -6 -14 8
-14 -10 -11 -32 6 -18 13 -17 14 16 14 19 0 29 -3 22 -6z m733 -3 c-3 -5 -14
-10 -23 -10 -15 0 -15 2 -2 10 20 13 33 13 25 0z m2200 -39 c-6 -5 -25 10 -25
20 0 5 6 4 14 -3 8 -7 12 -15 11 -17z m-3675 14 c0 -14 -65 -75 -81 -75 -10 0
-19 -4 -19 -10 0 -5 -9 -14 -20 -20 -16 -8 -20 -8 -20 4 0 20 60 87 71 80 5
-3 19 2 31 10 22 16 38 20 38 11z m1487 -64 c-3 -10 -5 -7 -6 7 0 12 -5 22
-11 22 -5 0 -7 7 -3 17 5 13 8 12 15 -7 5 -13 7 -31 5 -39z m-1319 22 c-9 -10
-21 -35 -28 -55 -6 -21 -15 -38 -19 -38 -4 0 -32 -22 -63 -49 -33 -31 -63 -49
-77 -48 -11 1 -21 3 -21 5 0 8 50 52 60 52 6 0 9 4 6 8 -2 4 11 26 29 47 26
30 37 37 43 27 7 -10 11 -10 22 3 10 13 9 15 -6 15 -14 0 -11 5 12 19 18 11
35 25 39 31 4 6 10 9 13 6 3 -3 -2 -14 -10 -23z m512 17 c0 -15 -35 -29 -58
-23 -22 5 -27 14 -15 26 10 11 73 8 73 -3z m1749 -9 c-13 -11 -26 -17 -29 -14
-6 6 30 33 43 33 5 0 -1 -9 -14 -19z m-1709 -1 c0 -5 -5 -10 -11 -10 -5 0 -7
5 -4 10 3 6 8 10 11 10 2 0 4 -4 4 -10z m1437 -12 c-3 -8 -6 -5 -6 6 -1 11 2
17 5 13 3 -3 4 -12 1 -19z m1061 -45 c24 -38 23 -54 -3 -33 -14 11 -17 10 -21
-8 -4 -11 -13 -23 -21 -26 -13 -5 -14 -1 -9 25 3 17 6 50 7 73 0 36 2 39 12
22 7 -10 22 -34 35 -53z m172 42 c0 -17 -2 -18 -25 -9 -13 5 -14 8 -3 15 19
13 28 11 28 -6z m-2000 1 c0 -3 -4 -8 -10 -11 -5 -3 -10 -1 -10 4 0 6 5 11 10
11 6 0 10 -2 10 -4z m29 -18 c-11 -8 -11 -11 -1 -15 10 -4 10 -8 1 -19 -9 -11
-6 -14 17 -12 16 1 32 7 36 13 5 6 8 6 8 -2 0 -7 9 -13 19 -13 20 0 22 14 6
40 -8 13 -7 13 8 1 9 -7 17 -20 17 -28 0 -10 7 -14 20 -10 24 6 27 -8 3 -17
-12 -5 -13 -10 -5 -18 24 -24 277 -12 296 14 9 12 17 13 29 6 14 -7 23 -3 43
21 14 17 30 28 35 25 5 -3 7 -10 4 -15 -11 -16 5 -48 21 -42 7 3 14 1 14 -5 0
-6 -5 -12 -12 -14 -14 -5 82 -38 111 -38 11 0 23 -5 27 -12 5 -7 3 -8 -6 -3
-8 5 -11 4 -6 -3 4 -6 13 -9 20 -6 7 3 19 -3 27 -12 9 -12 10 -15 2 -10 -7 4
-13 2 -13 -4 0 -6 7 -13 15 -16 8 -4 13 -10 10 -15 -3 -4 3 -13 14 -18 22 -12
38 -14 28 -4 -9 9 12 33 29 33 8 0 14 -4 14 -10 0 -5 -6 -10 -14 -10 -7 0 -16
-9 -19 -20 -4 -15 0 -20 13 -20 10 0 26 -12 36 -27 24 -38 47 -54 56 -40 8 13
17 -26 16 -70 -1 -21 -5 -30 -14 -26 -8 3 -12 10 -11 16 1 7 -6 11 -15 9 -15
-2 -16 1 -8 23 13 34 13 42 -1 28 -16 -16 -118 16 -149 47 -3 3 -30 17 -61 33
-90 43 -209 80 -209 63 0 -14 14 -36 22 -36 5 0 6 5 2 11 -8 13 21 -1 51 -26
19 -15 15 -16 -57 -11 -42 2 -85 9 -95 15 -17 10 -17 10 0 11 25 0 21 18 -5
23 -23 4 -23 4 2 15 l25 11 -30 1 c-16 1 -50 3 -75 5 -25 1 -52 -1 -60 -6 -10
-5 -11 -8 -2 -9 27 0 10 -19 -23 -26 -41 -7 -56 -24 -23 -25 l23 0 -22 -9
c-13 -5 -23 -11 -23 -12 0 -2 64 -3 143 -3 119 0 148 -3 180 -19 20 -10 50
-19 65 -20 58 -3 108 -57 145 -156 22 -59 21 -67 -3 -45 -20 18 -21 18 -40 -2
-10 -12 -17 -23 -14 -26 9 -8 16 -109 9 -134 -3 -13 -11 -23 -18 -21 -26 5
-56 -14 -65 -42 -9 -24 -15 -28 -36 -24 -13 2 -45 -3 -69 -11 -24 -8 -62 -16
-83 -18 -22 -2 -49 -9 -60 -15 -12 -6 -24 -9 -27 -5 -4 3 -14 0 -22 -7 -12
-10 -21 -10 -39 -2 -19 8 -25 8 -29 -2 -6 -16 -65 -27 -74 -14 -3 6 -16 7 -28
4 -18 -5 -25 -1 -30 14 -3 11 -3 25 1 32 5 10 4 10 -6 1 -11 -10 -17 -10 -29
0 -12 10 -13 9 -7 -3 7 -13 6 -13 -6 0 -7 8 -23 14 -35 12 -25 -4 -92 25 -111
48 -11 13 -13 13 -9 0 2 -8 13 -19 25 -25 27 -12 29 -25 4 -25 -23 0 -47 -66
-37 -101 4 -17 3 -20 -3 -10 -7 10 -11 2 -15 -30 -3 -24 -12 -74 -20 -110 -12
-56 -12 -72 -1 -98 7 -18 21 -31 31 -32 12 0 8 -4 -11 -11 -25 -9 -32 -7 -60
21 l-31 31 27 78 c48 137 55 269 18 342 -25 48 -31 102 -17 147 12 39 20 41
41 11 9 -12 16 -20 17 -18 6 41 2 80 -8 80 -17 0 -16 15 2 30 8 7 15 17 15 22
0 5 18 26 41 48 40 37 135 80 217 95 18 4 31 9 29 11 -7 7 -201 -36 -211 -47
-13 -12 -36 -12 -36 1 0 6 6 10 14 10 8 0 16 7 20 15 9 23 -10 18 -63 -19 -76
-52 -111 -97 -177 -227 -13 -26 -24 -50 -24 -54 0 -12 32 18 41 40 7 14 8 8 4
-22 -3 -26 -1 -43 5 -43 5 0 10 6 10 14 0 7 7 19 15 26 13 11 14 10 8 -6 -4
-10 -19 -42 -34 -70 -19 -38 -26 -62 -23 -90 3 -25 -1 -46 -12 -59 l-15 -20
-16 20 c-15 19 -15 19 -8 -10 4 -16 8 -101 11 -188 2 -87 8 -166 14 -177 6
-11 9 -20 8 -21 -53 -12 -76 -1 -103 50 -17 34 -52 70 -68 71 -4 0 0 -14 8
-31 19 -36 13 -49 -10 -25 -20 20 -26 20 -19 1 4 -8 17 -18 30 -21 13 -3 24
-10 24 -16 0 -5 -4 -7 -9 -3 -5 3 -12 1 -16 -5 -3 -5 1 -10 9 -10 8 0 20 -8
25 -17 6 -10 11 -12 11 -5 0 18 14 15 45 -12 30 -26 71 -38 103 -30 21 6 28
-5 38 -61 4 -20 0 -25 -18 -26 -63 -3 -121 23 -170 77 -18 20 -43 47 -54 59
-12 13 -40 29 -63 35 -42 11 -67 40 -57 66 3 9 -1 14 -14 14 -11 0 -23 0 -27
1 -4 0 -9 -5 -12 -12 -2 -8 2 -10 15 -5 10 4 5 -6 -14 -24 -33 -31 -41 -46
-19 -35 6 4 5 1 -3 -7 -8 -7 -16 -20 -16 -28 -1 -8 -5 -24 -9 -35 -4 -11 7 3
24 32 56 95 71 75 19 -26 -24 -47 -31 -73 -30 -112 1 -35 -3 -49 -11 -46 -8 3
-12 26 -11 63 0 32 -1 48 -3 35 -4 -19 -7 -21 -14 -10 -5 9 -9 -12 -9 -60 0
-64 -2 -72 -15 -61 -10 8 -15 31 -15 69 0 71 -8 99 -29 104 -10 3 -8 5 7 6 14
1 22 6 19 14 -2 6 -12 11 -22 9 -10 -2 -14 1 -10 7 3 6 13 11 21 11 11 0 14 6
9 23 -6 21 -5 21 6 2 17 -28 16 -28 28 -20 8 4 6 11 -4 21 -20 21 -19 31 5 44
22 12 27 36 8 43 -10 3 -10 7 1 20 9 11 10 17 2 17 -6 0 -11 5 -11 10 0 6 5
10 11 10 6 0 17 7 26 16 9 8 22 13 29 10 8 -3 14 -1 14 4 0 5 7 7 15 4 21 -9
19 22 -2 36 -14 9 -10 10 20 5 32 -5 37 -3 37 13 0 15 7 18 34 17 27 0 37 4
45 23 8 17 16 22 31 17 24 -8 26 1 3 23 -16 16 -16 17 0 20 18 4 23 27 8 37
-6 3 -6 17 -1 34 6 23 5 29 -5 25 -7 -3 -15 -1 -19 4 -7 12 26 12 41 0 9 -7
15 -5 19 6 3 9 12 16 19 16 8 0 16 4 19 9 3 4 -12 3 -33 -2 -22 -6 -46 -7 -57
-2 -10 5 -25 9 -33 9 -22 1 -25 26 -4 26 16 1 16 2 3 13 -9 7 -17 24 -18 40
-1 20 3 27 17 27 10 0 22 -8 25 -17 5 -12 10 -13 18 -5 9 9 7 17 -7 32 -17 18
-17 20 -1 20 9 0 15 4 11 10 -3 5 -13 6 -22 3 -11 -4 -14 -2 -11 8 3 8 12 15
22 17 16 4 75 52 62 52 -3 0 2 8 12 19 9 10 21 18 27 17 5 -1 12 15 16 34 5
29 7 31 9 10 2 -18 4 -20 7 -7 2 9 9 17 15 17 5 0 8 7 4 15 -3 9 0 15 10 15 8
0 13 4 10 9 -3 5 1 14 9 21 18 15 9 34 -12 26 -11 -5 -13 -1 -7 17 4 12 11 25
16 28 14 9 -20 59 -41 60 -10 0 -11 2 -3 6 6 2 12 11 12 19 0 9 -5 12 -11 8
-7 -4 -10 -1 -7 7 3 8 12 15 20 17 12 2 14 -4 10 -25 -3 -16 -1 -24 4 -20 5 5
9 13 9 19 0 6 17 11 37 13 21 1 35 -2 32 -7 -5 -8 14 -12 54 -8 15 1 22 -4 22
-16 0 -16 2 -16 13 -3 6 8 20 21 30 28 15 12 17 12 10 -5 -6 -17 -5 -17 10 -5
9 7 14 17 11 22 -3 5 2 6 11 3 11 -5 18 0 22 15 3 11 10 18 15 15 6 -4 8 1 4
14 -4 12 -1 26 9 35 18 18 20 37 3 37 -6 0 -8 3 -4 7 4 5 14 -1 22 -12 13 -17
16 -18 24 -5 7 11 5 16 -6 18 -14 3 -13 6 2 23 9 10 21 16 26 13 6 -4 5 -10
-3 -16z m-542 4 c10 -6 9 -13 -3 -30 -13 -18 -18 -20 -34 -9 -23 13 -26 33 -7
40 18 8 31 8 44 -1z m-247 -12 c0 -5 -4 -10 -10 -10 -5 0 -10 5 -10 10 0 6 5
10 10 10 6 0 10 -4 10 -10z m120 2 c0 -5 13 -8 29 -7 19 1 27 -2 24 -10 -6
-16 -53 -38 -53 -25 0 6 -3 9 -7 8 -9 -3 -13 5 -13 27 0 8 5 15 10 15 6 0 10
-4 10 -8z m470 -2 c0 -5 -4 -10 -9 -10 -6 0 -13 5 -16 10 -3 6 1 10 9 10 9 0
16 -4 16 -10z m947 -22 c-3 -8 -6 -5 -6 6 -1 11 2 17 5 13 3 -3 4 -12 1 -19z
m-2179 -20 c-32 -46 -99 -108 -117 -108 -12 0 -12 3 -3 12 7 7 12 16 12 20 0
14 -37 9 -50 -7 -9 -10 -9 -15 -1 -15 6 0 11 5 11 10 0 6 4 10 8 10 13 0 8
-61 -6 -87 -31 -56 0 -58 53 -3 40 41 65 51 65 26 0 -8 -11 -17 -25 -20 -16
-4 -32 -20 -43 -43 -17 -36 -64 -93 -76 -93 -12 0 -57 -55 -71 -87 -8 -17 -25
-40 -38 -50 -14 -11 -33 -46 -47 -88 -12 -39 -26 -74 -31 -79 -5 -6 -9 -33 -9
-60 l1 -51 23 65 c13 36 29 89 36 118 7 30 17 55 24 56 6 2 26 8 44 14 31 10
33 10 26 -11 -19 -61 -62 -156 -67 -151 -13 13 -19 -28 -8 -49 16 -31 21 -66
10 -72 -5 -4 -9 -17 -9 -31 0 -14 -18 -61 -40 -106 -22 -45 -42 -96 -46 -114
-4 -25 -11 -31 -29 -31 -30 0 -37 18 -26 70 5 23 12 85 16 137 6 89 14 127 51
255 8 28 19 75 25 105 6 30 15 60 19 65 5 6 23 55 40 109 40 126 134 269 186
286 19 6 38 9 42 6 5 -3 18 1 28 9 35 26 46 17 22 -17z m3312 -38 c0 -8 7 -24
15 -34 19 -25 19 -42 1 -27 -11 9 -15 9 -19 -1 -4 -10 -8 -10 -16 2 -14 19
-14 33 -1 25 14 -9 12 15 -3 45 -27 52 -28 66 -2 35 14 -16 25 -37 25 -45z
m-2400 50 c0 -5 -5 -10 -11 -10 -5 0 -7 5 -4 10 3 6 8 10 11 10 2 0 4 -4 4
-10z m342 -22 c-9 -9 -15 -9 -24 1 -9 10 -9 12 -1 7 6 -3 15 -1 18 5 4 5 10 8
13 4 3 -3 0 -11 -6 -17z m1375 -2 c16 4 23 2 23 -9 0 -11 -13 -15 -50 -16 -40
0 -48 2 -44 14 4 8 2 15 -4 15 -6 0 -12 -5 -14 -12 -3 -7 -10 -8 -17 -4 -9 6
-7 11 11 20 18 9 28 9 48 -1 13 -7 35 -10 47 -7z m-415 -20 c4 3 4 -3 1 -14
-2 -11 0 -23 6 -26 16 -10 14 -26 -3 -26 -15 0 -20 12 -31 70 -5 33 -5 34 8
12 7 -12 16 -20 19 -16z m1491 19 c4 -8 2 -17 -3 -20 -6 -4 -10 3 -10 14 0 25
6 27 13 6z m-3019 -11 c8 -21 8 -24 -5 -24 -7 0 -23 -12 -36 -26 -13 -14 -27
-24 -30 -20 -3 3 7 18 23 33 20 18 25 28 15 31 -11 4 -11 6 0 13 20 12 26 11
33 -7z m56 6 c0 -5 -4 -10 -10 -10 -5 0 -10 5 -10 10 0 6 5 10 10 10 6 0 10
-4 10 -10z m110 -10 c8 -16 6 -21 -12 -31 -13 -6 -49 -36 -80 -65 -31 -30 -61
-54 -67 -54 -5 0 -12 -8 -15 -18 -3 -10 -20 -23 -37 -29 -27 -10 -30 -10 -27
5 2 9 -3 23 -12 30 -8 8 -9 10 -2 7 20 -10 96 71 87 93 -5 13 -3 14 6 5 14
-14 42 -6 32 10 -3 5 -1 7 5 3 6 -3 18 2 28 11 20 21 66 53 76 53 4 0 12 -9
18 -20z m2425 -10 c3 -5 1 -10 -4 -10 -6 0 -11 5 -11 10 0 6 2 10 4 10 3 0 8
-4 11 -10z m-1180 -20 c3 -5 -3 -10 -15 -10 -12 0 -18 5 -15 10 3 6 10 10 15
10 5 0 12 -4 15 -10z m485 1 c0 -4 11 -6 25 -3 15 2 25 0 25 -7 0 -6 7 -11 15
-11 15 0 72 -57 92 -93 20 -35 15 -45 -6 -12 -18 30 -71 73 -71 58 0 -5 -20
-7 -45 -5 -108 9 -176 -65 -152 -163 l8 -30 -21 33 c-28 45 -28 47 22 158 5
11 25 29 44 39 22 12 30 21 23 26 -8 5 -6 9 7 12 30 8 34 7 34 -2z m306 -4 c4
-4 -5 -7 -19 -7 -15 0 -27 4 -27 10 0 11 35 8 46 -3z m-201 -7 c3 -5 -1 -10
-10 -10 -9 0 -13 5 -10 10 3 6 8 10 10 10 2 0 7 -4 10 -10z m-1670 -40 c3 -5
1 -18 -4 -28 -6 -11 -6 -23 -1 -28 5 -5 12 -26 15 -46 6 -34 5 -39 -17 -47
-13 -5 -37 -20 -54 -34 -31 -26 -74 -51 -74 -43 0 3 17 21 38 41 24 23 30 33
17 29 -11 -4 -30 -18 -42 -31 -12 -13 -30 -23 -39 -23 -16 0 -16 -2 2 -15 10
-8 14 -15 8 -15 -6 0 -17 6 -23 14 -9 10 3 24 59 65 42 31 72 62 76 77 3 13
10 21 15 18 15 -9 10 13 -6 26 -13 11 -14 10 -9 -4 8 -20 -9 -21 -26 -1 -16
19 -4 35 26 35 14 0 22 4 19 10 -3 6 -2 10 4 10 5 0 13 -4 16 -10z m1440 -10
c3 -5 1 -10 -4 -10 -6 0 -11 5 -11 10 0 6 2 10 4 10 3 0 8 -4 11 -10z m-1568
-39 c1 -13 -9 -23 -28 -32 -17 -6 -38 -23 -46 -36 -9 -13 -18 -21 -20 -19 -3
3 4 17 16 32 14 18 18 30 11 34 -18 11 9 28 60 39 3 0 6 -8 7 -18z m826 2 c-7
-2 -19 -2 -25 0 -7 3 -2 5 12 5 14 0 19 -2 13 -5z m644 1 c-3 -3 -12 -4 -19
-1 -8 3 -5 6 6 6 11 1 17 -2 13 -5z m1453 -34 c0 -5 7 -10 15 -10 20 0 19 -16
-1 -24 -27 -11 -34 -7 -32 19 2 23 18 37 18 15z m-3754 -94 c-52 -53 -54 -54
-44 -23 14 41 44 75 72 79 11 2 22 3 24 2 1 -1 -22 -27 -52 -58z m2245 51 c-1
-12 -15 -9 -19 4 -3 6 1 10 8 8 6 -3 11 -8 11 -12z m1272 -80 c-3 -18 -5 -38
-6 -44 0 -7 -5 -13 -10 -13 -5 0 -7 -11 -5 -25 3 -14 2 -25 -1 -25 -11 0 -30
91 -27 120 2 14 4 36 5 50 l2 25 23 -28 c17 -21 22 -38 19 -60z m-929 21 c47
-55 46 -67 -1 -20 -21 21 -35 33 -30 28 13 -17 8 -34 -10 -32 -17 3 -36 49
-25 60 13 14 33 3 66 -36z m-2054 22 c0 -5 -5 -10 -11 -10 -5 0 -7 5 -4 10 3
6 8 10 11 10 2 0 4 -4 4 -10z m35 -30 c-3 -5 -11 -10 -16 -10 -6 0 -7 5 -4 10
3 6 11 10 16 10 6 0 7 -4 4 -10z m3045 0 c0 -5 -5 -10 -11 -10 -5 0 -7 5 -4
10 3 6 8 10 11 10 2 0 4 -4 4 -10z m-1077 -57 c-7 -2 -19 -2 -25 0 -7 3 -2 5
12 5 14 0 19 -2 13 -5z m-1903 -18 c0 -9 -6 -12 -15 -9 -8 4 -12 10 -9 15 8
14 24 10 24 -6z m-800 -31 c-6 -14 -10 -40 -10 -59 0 -39 -14 -52 -34 -32 -12
11 -12 18 1 47 12 30 40 70 49 70 2 0 -1 -12 -6 -26z m836 -4 c0 -20 -7 -25
-19 -13 -4 3 -2 12 4 20 15 17 15 17 15 -7z m2034 11 c0 -5 -7 -11 -15 -15
-15 -5 -20 5 -8 17 9 10 23 9 23 -2z m-1960 -32 c0 -6 -4 -7 -10 -4 -5 3 -10
11 -10 16 0 6 5 7 10 4 6 -3 10 -11 10 -16z m40 12 c0 -6 -4 -13 -10 -16 -5
-3 -10 1 -10 9 0 9 5 16 10 16 6 0 10 -4 10 -9z m2560 -28 c0 -32 -5 -28 -14
10 -4 19 -3 26 4 22 5 -3 10 -18 10 -32z m-3416 3 c-3 -9 -10 -16 -15 -16 -6
0 -5 9 1 21 13 24 24 20 14 -5z m2852 -21 c-4 -28 -24 -40 -42 -24 -15 12 -14
15 12 26 16 7 30 12 31 13 1 0 0 -7 -1 -15z m544 5 c0 -5 -4 -10 -10 -10 -5 0
-10 5 -10 10 0 6 5 10 10 10 6 0 10 -4 10 -10z m-1268 -32 c-9 -9 -12 -7 -12
12 0 19 3 21 12 12 9 -9 9 -15 0 -24z m368 11 c0 -5 -4 -9 -10 -9 -5 0 -10 7
-10 16 0 8 5 12 10 9 6 -3 10 -10 10 -16z m-1900 -19 c17 -17 30 -38 30 -47 0
-13 -3 -14 -12 -5 -19 19 -82 15 -105 -7 -12 -11 -24 -40 -28 -68 -11 -62 -11
-63 -26 -98 l-12 -30 -8 50 c-5 32 -4 52 2 56 6 3 10 8 9 10 -1 2 2 12 5 22 4
9 1 25 -6 34 -10 12 -10 15 -1 9 8 -5 18 3 30 23 9 17 21 31 25 31 5 0 5 5 2
10 -3 6 1 10 9 10 9 0 16 4 16 10 0 5 7 7 15 4 8 -4 15 -1 15 5 0 17 8 13 40
-19z m205 -16 c24 -37 3 -59 -73 -79 -62 -15 -102 -13 -102 6 0 12 17 12 25
-1 3 -5 11 -10 16 -10 6 0 8 4 4 9 -3 5 7 19 22 30 16 11 37 29 47 38 11 10
15 12 11 4 -6 -10 -4 -12 4 -7 6 4 9 16 6 27 -9 26 19 15 40 -17z m2593 11
c-3 -3 -9 2 -12 12 -6 14 -5 15 5 6 7 -7 10 -15 7 -18z m19 3 c-3 -8 -6 -5 -6
6 -1 11 2 17 5 13 3 -3 4 -12 1 -19z m-3455 -20 c-8 -8 -9 -4 -5 13 4 13 8 18
11 10 2 -7 -1 -18 -6 -23z m738 12 c8 -5 11 -12 8 -16 -10 -9 -38 3 -38 16 0
12 10 13 30 0z m2310 -59 c0 -3 -7 2 -14 11 -12 16 -14 16 -24 -7 -6 -14 -18
-25 -27 -25 -20 0 -154 -45 -191 -65 -16 -8 -34 -15 -41 -15 -19 0 -26 20 -13
35 10 12 9 15 -4 15 -10 0 -14 -4 -11 -10 3 -5 2 -10 -2 -10 -5 0 -14 10 -21
21 -13 21 -12 21 19 17 33 -5 84 4 124 22 11 5 43 16 70 25 28 9 64 24 80 34
l30 18 13 -30 c6 -16 12 -32 12 -36z m-3170 39 c-6 -11 -8 -24 -5 -29 8 -14
-6 -41 -21 -41 -19 0 -18 35 2 65 20 30 39 34 24 5z m2689 -16 c-35 -19 -45
-17 -25 5 10 11 25 17 33 14 12 -5 10 -9 -8 -19z m982 -1 c10 -26 12 -26 18
-8 6 15 11 10 24 -30 17 -49 22 -85 12 -85 -3 0 -15 8 -26 19 -15 14 -18 25
-13 46 5 19 3 26 -4 21 -6 -3 -14 -1 -17 5 -4 5 -13 8 -20 5 -21 -8 -25 5 -8
30 19 30 21 30 34 -3z m279 6 c0 -6 -4 -7 -10 -4 -5 3 -10 11 -10 16 0 6 5 7
10 4 6 -3 10 -11 10 -16z m-400 -35 c0 -8 -4 -12 -10 -9 -5 3 -10 10 -10 16 0
5 5 9 10 9 6 0 10 -7 10 -16z m-3145 -14 c3 -5 1 -10 -4 -10 -6 0 -11 5 -11
10 0 6 2 10 4 10 3 0 8 -4 11 -10z m3261 -46 c51 -88 58 -237 18 -371 -21 -69
-31 -84 -50 -76 -11 4 -14 -5 -14 -42 0 -51 0 -51 63 -2 26 20 37 24 37 14 0
-8 -7 -20 -15 -27 -8 -7 -15 -28 -15 -46 0 -24 5 -34 15 -34 8 0 15 -4 15 -10
0 -5 -7 -10 -15 -10 -17 0 -16 7 -18 -131 -2 -86 -5 -111 -19 -126 -10 -11
-18 -24 -18 -30 0 -5 -11 -23 -25 -39 -14 -16 -30 -47 -36 -69 -5 -22 -18 -65
-29 -95 -10 -30 -22 -82 -25 -114 -4 -33 -11 -70 -16 -83 -22 -57 -128 -140
-163 -127 -8 3 -19 -3 -25 -14 -8 -16 -7 -21 4 -26 9 -3 15 0 15 9 0 8 7 15
15 15 20 0 19 -6 -7 -29 -16 -16 -25 -18 -35 -10 -10 9 -13 8 -13 -5 0 -9 -8
-16 -17 -16 -14 0 -9 -8 16 -30 l34 -30 -34 0 c-32 -1 -33 -1 -15 -15 15 -11
16 -15 5 -15 -8 0 -23 -17 -34 -37 -11 -20 -35 -55 -53 -77 -110 -136 -102
-129 -212 -171 -25 -9 -53 -21 -63 -26 -10 -5 -22 -7 -27 -4 -6 4 -10 1 -10
-4 0 -6 -4 -11 -10 -11 -5 0 -19 -8 -29 -17 -19 -15 -19 -17 -3 -29 16 -12 16
-13 -3 -20 -11 -5 -60 -34 -109 -66 -50 -32 -119 -67 -155 -79 -57 -19 -79
-21 -184 -16 -104 5 -127 4 -178 -14 -32 -11 -68 -18 -79 -14 -16 5 -20 2 -20
-15 0 -29 -27 -55 -78 -75 -39 -16 -46 -16 -82 -2 -38 15 -39 15 -30 -4 6 -10
7 -19 2 -19 -18 0 -32 26 -32 60 l0 37 -102 8 c-57 4 -119 9 -138 10 -19 2
-40 -1 -47 -7 -7 -5 -17 -7 -23 -3 -21 13 -8 23 40 30 27 4 48 12 47 18 -4 20
-31 47 -48 47 -10 0 -44 6 -76 14 -110 27 -120 27 -126 5 -5 -17 -10 -19 -29
-13 -64 21 -113 31 -117 22 -5 -13 -1 -15 46 -21 22 -4 54 -9 69 -13 18 -5 31
-2 38 7 12 15 76 22 76 8 0 -5 0 -12 0 -16 0 -4 -8 -8 -18 -9 -52 -3 -53 -3
-40 -23 6 -11 30 -27 52 -37 l41 -18 -100 -6 c-97 -7 -189 1 -230 20 -28 12
-160 59 -218 76 -73 23 -49 28 40 9 43 -9 88 -18 101 -21 36 -7 25 12 -15 29
-29 12 -32 16 -16 16 12 1 24 5 27 10 7 11 46 2 46 -10 0 -5 5 -9 11 -9 5 0 7
6 4 12 -4 7 1 4 10 -7 12 -15 18 -17 24 -7 4 7 16 10 27 7 18 -6 18 -6 1 5 -9
6 -15 15 -12 19 2 5 -5 11 -17 14 -12 4 -19 9 -15 13 3 4 17 0 31 -9 13 -9 37
-16 53 -15 15 1 48 -1 73 -5 28 -5 39 -4 30 1 -8 5 -33 13 -54 17 -73 13 -306
150 -306 180 0 12 45 -8 68 -31 13 -13 45 -31 70 -40 26 -10 49 -20 52 -23 12
-14 51 -31 70 -31 11 0 20 -4 20 -8 0 -4 13 -9 29 -10 16 -1 47 -9 70 -17 23
-8 41 -12 41 -10 0 2 56 -11 125 -29 69 -18 125 -30 125 -26 0 5 7 10 14 13 9
4 13 1 10 -6 -5 -14 159 -17 173 -3 4 4 -5 7 -22 6 -47 -3 -53 1 -15 10 19 5
39 5 45 0 12 -10 75 -10 75 0 0 4 18 2 40 -3 29 -8 57 -8 107 2 38 7 76 12 85
12 10 0 21 5 24 11 5 8 1 9 -10 5 -12 -5 -16 -3 -14 5 3 7 11 13 19 13 8 0 17
5 22 10 4 6 11 4 17 -6 10 -17 60 -15 60 2 0 5 12 9 26 9 14 0 23 4 19 10 -3
6 -15 10 -26 10 -10 0 -19 5 -19 10 0 14 15 13 55 -4 32 -14 36 -13 48 5 10
13 27 20 56 21 23 1 46 7 52 15 6 7 20 13 30 13 11 0 18 5 17 12 -2 6 5 14 16
16 13 3 16 0 11 -10 -3 -7 0 -5 8 5 8 9 19 17 25 17 28 0 83 36 88 57 5 17 11
22 24 18 9 -3 23 1 30 10 7 8 16 12 21 9 5 -3 12 2 15 10 3 9 16 16 28 16 12
0 27 9 33 20 7 10 39 38 70 61 32 23 70 56 85 72 30 33 77 67 93 67 11 0 -92
-100 -181 -176 -63 -54 -148 -114 -160 -114 -4 0 -28 -17 -53 -38 -25 -21 -57
-44 -69 -51 -13 -7 -22 -15 -19 -17 3 -3 25 7 51 21 44 24 66 26 66 4 0 -5
-11 -7 -25 -5 -20 4 -25 1 -25 -15 0 -21 20 -27 20 -6 0 6 6 3 12 -7 10 -17
12 -18 22 -3 7 8 21 15 32 14 13 -1 18 3 16 15 -1 9 2 19 8 23 15 9 12 25 -5
25 -8 0 -15 7 -15 16 0 8 4 13 9 10 16 -10 64 14 95 47 16 18 25 26 21 18 -10
-18 0 -13 52 24 23 17 42 35 43 42 0 6 5 15 12 19 8 5 9 2 5 -9 -5 -14 -3 -15
18 -5 26 12 34 43 13 51 -7 2 -10 8 -6 12 4 4 22 1 40 -8 19 -9 34 -12 36 -6
2 5 8 7 13 3 5 -3 9 -1 9 5 0 5 7 17 16 26 13 12 14 19 5 28 -8 8 -11 7 -11
-4 0 -18 -56 -53 -70 -44 -13 8 -13 25 1 25 5 0 7 -5 3 -11 -4 -7 -1 -10 7 -7
8 3 13 13 13 22 -1 9 6 16 15 16 15 0 27 20 45 75 6 16 9 17 16 5 6 -8 10 -29
10 -47 0 -25 3 -31 16 -26 9 3 12 8 5 12 -5 4 -7 24 -4 48 3 24 9 40 13 38 4
-3 13 2 20 10 7 8 9 15 4 15 -5 1 1 9 14 20 13 11 21 24 17 30 -3 5 1 10 10
10 9 0 15 6 14 13 -6 47 2 78 24 87 12 5 18 9 12 10 -7 0 -7 3 0 8 22 15 86
160 96 217 6 33 15 65 20 71 5 6 7 19 3 28 -3 9 -2 16 4 16 13 0 22 23 37 97
7 38 8 60 2 56 -6 -4 -7 -1 -2 8 5 7 10 25 11 39 2 14 10 62 19 108 9 45 15
113 13 152 -2 39 0 70 5 70 10 0 8 78 -4 125 -5 22 -12 72 -15 110 -3 39 -6
88 -8 110 -1 22 -6 53 -11 69 -10 34 2 44 52 41 31 -2 40 -9 59 -41z m-3722
12 c-6 -16 -24 -23 -24 -8 0 10 22 33 27 28 2 -2 1 -11 -3 -20z m2457 -13
c-12 -20 -14 -14 -5 12 4 9 9 14 11 11 3 -2 0 -13 -6 -23z m-1616 -41 c-5 -19
-3 -23 9 -19 9 4 16 2 16 -3 0 -13 27 -13 32 -1 2 5 21 11 43 13 31 2 40 -1
43 -15 5 -26 -45 -42 -83 -27 -29 12 -47 15 -125 19 -50 2 -68 15 -50 36 10
12 24 15 46 12 22 -4 34 -1 38 9 3 8 12 11 21 7 12 -4 15 -13 10 -31z m536 2
c-9 -28 -9 -29 -10 -3 -1 14 2 29 6 32 11 12 13 2 4 -29z m1979 26 c0 -5 -4
-10 -10 -10 -5 0 -10 5 -10 10 0 6 5 10 10 10 6 0 10 -4 10 -10z m251 -215
c20 -194 24 -355 10 -401 -5 -16 -14 -60 -21 -99 -23 -133 -72 -318 -98 -369
-21 -43 -43 -80 -117 -197 -51 -81 -92 -131 -99 -120 -3 5 1 12 10 15 8 3 13
10 10 15 -3 5 1 14 10 21 8 7 12 20 9 28 -3 8 3 16 15 19 22 6 25 14 9 30 -7
7 -6 12 5 16 9 4 16 2 16 -4 0 -6 4 -8 10 -4 5 3 7 12 4 20 -3 7 4 18 16 25
11 6 20 16 18 23 -4 22 13 57 28 57 8 0 17 8 20 18 4 9 14 35 24 58 10 23 35
108 55 190 48 200 47 194 34 194 -6 0 -4 6 4 15 21 21 31 161 21 303 -4 64 -7
121 -6 125 2 7 -11 127 -23 217 -5 33 -5 33 6 10 6 -14 19 -106 30 -205z
m-3631 205 c0 -5 -5 -10 -11 -10 -5 0 -7 5 -4 10 3 6 8 10 11 10 2 0 4 -4 4
-10z m2296 -46 c-3 -8 -10 -13 -16 -9 -6 4 -5 13 3 26 13 21 23 8 13 -17z
m-2291 16 c3 -5 1 -10 -4 -10 -6 0 -11 5 -11 10 0 6 2 10 4 10 3 0 8 -4 11
-10z m1095 0 c0 -5 -4 -10 -9 -10 -6 0 -13 5 -16 10 -3 6 1 10 9 10 9 0 16 -4
16 -10z m1560 -37 c0 -22 -2 -25 -10 -13 -13 20 -13 40 0 40 6 0 10 -12 10
-27z m-1494 -9 c-4 -9 -9 -15 -11 -12 -3 3 -3 13 1 22 4 9 9 15 11 12 3 -3 3
-13 -1 -22z m2774 -131 c0 -17 -11 -28 -40 -42 -48 -23 -51 -14 -10 31 29 31
31 36 26 98 l-5 65 14 -65 c8 -36 14 -75 15 -87z m-2540 111 c0 -8 -4 -14 -10
-14 -5 0 -10 9 -10 21 0 11 5 17 10 14 6 -3 10 -13 10 -21z m1170 10 c0 -2 -7
-4 -15 -4 -8 0 -15 4 -15 10 0 5 7 7 15 4 8 -4 15 -8 15 -10z m1510 -28 c0
-26 -6 -18 -14 19 -5 22 -4 26 4 15 5 -8 10 -24 10 -34z m-690 14 c0 -5 -4
-10 -10 -10 -5 0 -10 5 -10 10 0 6 5 10 10 10 6 0 10 -4 10 -10z m-729 -140
c-5 -35 -5 -35 -10 -6 -3 15 -4 56 -1 90 l4 61 6 -55 c3 -30 3 -71 1 -90z
m-1257 104 c4 -9 4 -25 1 -35 -8 -25 3 -24 26 3 19 21 19 21 19 -24 0 -31 -9
-64 -29 -101 -19 -36 -27 -64 -24 -83 l4 -29 -30 35 c-36 41 -36 44 -11 139
11 41 20 83 20 93 0 22 16 24 24 2z m2723 -16 c-3 -7 -5 -2 -5 12 0 14 2 19 5
13 2 -7 2 -19 0 -25z m-2217 12 c0 -5 -4 -10 -10 -10 -5 0 -10 5 -10 10 0 6 5
10 10 10 6 0 10 -4 10 -10z m2247 -37 c-3 -10 -5 -4 -5 12 0 17 2 24 5 18 2
-7 2 -21 0 -30z m-1399 -16 c5 -23 -10 -21 -26 4 -12 18 -11 20 5 17 10 -2 19
-11 21 -21z m-2703 -19 c-9 -41 -14 -50 -25 -43 -8 5 18 75 28 75 2 0 0 -15
-3 -32z m112 -29 c-4 -3 -17 -32 -27 -65 -23 -72 -26 -46 -5 40 23 88 27 96
34 61 4 -16 3 -33 -2 -36z m2631 -3 c-7 -8 -15 -12 -17 -11 -5 6 10 25 20 25
5 0 4 -6 -3 -14z m-772 -41 c11 -24 16 -41 11 -38 -18 11 -98 12 -95 1 2 -6
-8 -23 -22 -38 -66 -72 -116 -174 -105 -211 5 -14 1 -19 -14 -19 -12 0 -21 -4
-21 -10 0 -5 -6 -10 -14 -10 -19 0 0 54 36 100 15 19 24 38 21 43 -3 5 -10 3
-14 -4 -7 -10 -8 -5 -5 13 3 16 -1 28 -9 32 -9 3 -15 -3 -17 -17 -3 -21 -7
-22 -88 -19 -94 3 -161 26 -180 62 -10 19 -10 20 9 8 12 -7 21 -16 21 -20 0
-5 5 -8 11 -8 5 0 7 5 4 10 -4 6 -4 17 -1 25 4 11 12 10 43 -6 43 -22 89 -24
165 -7 66 14 72 19 86 65 11 36 45 63 78 63 6 0 14 7 18 15 3 9 17 15 33 15
23 -1 32 -9 49 -45z m724 35 c0 -5 -4 -10 -10 -10 -5 0 -10 5 -10 10 0 6 5 10
10 10 6 0 10 -4 10 -10z m-290 -30 c6 -11 8 -20 6 -20 -3 0 -10 9 -16 20 -6
11 -8 20 -6 20 3 0 10 -9 16 -20z m-2393 -4 c-3 -7 -2 -17 3 -22 4 -5 10 -22
12 -39 3 -16 3 -24 1 -17 -3 6 -11 12 -18 12 -7 0 -15 8 -17 18 -2 9 -12 -14
-21 -52 -15 -56 -16 -71 -5 -77 10 -7 10 -9 1 -9 -20 0 -45 -70 -50 -140 -7
-116 -63 -333 -63 -248 0 15 -5 39 -11 55 -16 41 -16 43 -24 214 l-7 156 30
22 c34 24 52 27 53 9 0 -7 2 -23 3 -36 2 -12 -3 -33 -10 -46 -11 -23 -3 -46
17 -46 9 0 53 143 63 203 4 23 12 37 21 37 8 0 15 5 15 10 0 6 3 10 6 10 3 0
4 -6 1 -14z m843 10 c0 -3 -4 -8 -10 -11 -5 -3 -10 -1 -10 4 0 6 5 11 10 11 6
0 10 -2 10 -4z m3257 -38 c-3 -8 -6 -5 -6 6 -1 11 2 17 5 13 3 -3 4 -12 1 -19z
m-3259 -27 c-2 -3 -10 -18 -17 -33 -14 -27 -41 -39 -41 -18 0 6 5 10 11 10 5
0 9 8 7 18 -4 24 10 42 28 35 8 -3 13 -8 12 -12z m1580 -6 c-3 -3 -9 2 -12 12
-6 14 -5 15 5 6 7 -7 10 -15 7 -18z m-715 1 c24 -19 3 -34 -54 -39 -24 -2 -52
-7 -61 -11 -9 -4 -25 -3 -35 3 -16 9 -14 11 12 12 23 1 25 3 8 6 -12 2 -24 10
-27 18 -4 11 0 12 19 5 32 -12 94 -8 100 8 6 15 15 15 38 -2z m1060 4 c16 -1
-34 -29 -51 -30 -7 0 -25 -11 -40 -25 -15 -14 -30 -25 -34 -25 -10 0 -10 20 0
20 4 0 25 16 47 35 22 19 46 33 53 30 8 -3 19 -5 25 -5z m127 -15 c0 -10 -9
-11 -40 -3 -22 6 -40 13 -40 17 0 4 18 5 40 3 24 -3 40 -9 40 -17z m-702 -21
c-10 -10 -28 6 -28 24 0 15 1 15 17 -1 9 -9 14 -19 11 -23z m-2288 11 c0 -8
-4 -15 -10 -15 -5 0 -7 7 -4 15 4 8 8 15 10 15 2 0 4 -7 4 -15z m2360 -5 c-15
-10 -60 -14 -60 -5 0 6 64 23 70 18 2 -2 -2 -8 -10 -13z m94 -1 c16 -14 -42
-67 -92 -84 -56 -19 -152 -20 -152 -2 0 6 -3 22 -6 35 -6 21 -4 22 58 22 73 0
124 14 132 36 6 16 41 11 60 -7z m456 -1 c-3 -4 5 -14 16 -23 24 -16 37 -52
23 -61 -5 -3 -9 -1 -9 4 0 16 -38 21 -73 10 -24 -7 -40 -23 -60 -58 -15 -26
-27 -55 -27 -64 0 -9 -6 -13 -14 -10 -8 3 -39 -1 -68 -9 -79 -22 -117 -27
-123 -17 -3 5 -1 11 5 15 5 3 10 15 10 25 0 13 12 22 38 31 43 14 118 52 147
74 17 14 18 17 5 26 -13 8 -11 13 9 27 14 9 38 22 55 28 33 13 74 14 66 2z
m165 2 c3 -5 1 -10 -4 -10 -6 0 -11 5 -11 10 0 6 2 10 4 10 3 0 8 -4 11 -10z
m-538 -17 c4 -9 2 -18 -3 -20 -6 -2 -9 -16 -6 -32 2 -16 -1 -32 -7 -35 -7 -5
-11 11 -11 48 0 55 14 74 27 39z m1670 -15 c-3 -7 -5 -2 -5 12 0 14 2 19 5 13
2 -7 2 -19 0 -25z m-77 -26 c0 -7 -4 -10 -10 -7 -5 3 -10 16 -10 28 0 18 2 19
10 7 5 -8 10 -21 10 -28z m-4257 -49 c4 -19 2 -33 -3 -33 -6 0 -10 17 -10 37
0 43 5 41 13 -4z m4334 0 c-3 -10 -5 -4 -5 12 0 17 2 24 5 18 2 -7 2 -21 0
-30z m-284 -25 c3 -18 8 -40 12 -49 4 -11 0 -18 -14 -22 -17 -4 -20 1 -23 42
-7 74 13 97 25 29z m210 22 c3 -11 1 -18 -4 -14 -5 3 -9 12 -9 20 0 20 7 17
13 -6z m224 -22 c-3 -7 -5 -2 -5 12 0 14 2 19 5 13 2 -7 2 -19 0 -25z m-220
-100 c1 -35 -2 -46 -7 -33 -4 11 -6 23 -4 27 3 4 0 9 -6 13 -7 4 -7 12 0 26 6
10 12 19 14 19 1 0 3 -24 3 -52z m-2113 23 c6 -9 -45 -31 -73 -31 -10 0 -4 7
14 19 34 22 51 25 59 12z m936 -7 c0 -8 -5 -12 -10 -9 -6 4 -8 11 -5 16 9 14
15 11 15 -7z m-2184 -36 c-19 -27 -21 -19 -4 18 7 14 14 21 16 15 2 -6 -4 -21
-12 -33z m68 -10 c-9 -14 -24 2 -24 25 1 21 1 21 15 3 8 -10 12 -23 9 -28z
m1241 33 c7 -12 -12 -24 -25 -16 -11 7 -4 25 10 25 5 0 11 -4 15 -9z m942 -38
c-3 -10 -5 -2 -5 17 0 19 2 27 5 18 2 -10 2 -26 0 -35z m-93 -10 c-10 -7 -29
-13 -43 -13 -25 1 -25 1 5 14 18 8 35 20 40 27 6 11 9 10 12 -1 3 -7 -3 -19
-14 -27z m-3084 17 c0 -5 -4 -10 -10 -10 -5 0 -10 5 -10 10 0 6 5 10 10 10 6
0 10 -4 10 -10z m4047 -32 c-3 -7 -5 -2 -5 12 0 14 2 19 5 13 2 -7 2 -19 0
-25z m-4007 0 c0 -13 3 -34 6 -48 5 -19 4 -22 -5 -14 -17 15 -27 84 -12 84 6
0 11 -10 11 -22z m4272 -19 c-8 -31 -9 -32 -16 -12 -4 14 -2 28 6 37 18 20 21
14 10 -25z m-3011 11 c16 -7 45 -10 64 -7 53 9 42 -9 -15 -23 -66 -16 -150 -5
-150 19 0 10 2 20 5 22 8 9 65 2 96 -11z m699 -29 c0 -21 -63 -65 -99 -68 -37
-4 -39 -2 -43 27 -6 41 12 63 64 76 38 10 45 9 61 -8 9 -11 17 -23 17 -27z
m1986 22 c-10 -10 -19 5 -10 18 6 11 8 11 12 0 2 -7 1 -15 -2 -18z m-2251 -19
c12 4 12 0 3 -20 -9 -19 -8 -27 2 -37 10 -10 12 -9 7 6 -4 9 -3 17 0 17 12 0
43 -33 43 -47 0 -7 7 -16 15 -19 8 -4 15 -16 16 -28 0 -11 6 -36 13 -55 15
-42 37 -54 30 -17 -3 20 -1 24 11 19 9 -3 14 -11 11 -18 -2 -7 -2 -16 2 -20 4
-4 7 -11 7 -16 0 -22 21 -8 29 20 7 25 14 31 37 31 19 0 29 -5 29 -15 0 -8 -7
-15 -16 -15 -8 0 -22 -6 -29 -14 -12 -12 -10 -15 17 -18 17 -3 45 -2 62 1 17
4 76 5 131 2 134 -8 107 -25 -37 -24 -95 0 -110 -2 -118 -18 -16 -28 -14 -29
58 -30 53 -1 61 -3 39 -9 -16 -5 -37 -7 -47 -5 -31 6 -34 -14 -3 -22 39 -10
40 -10 69 -12 16 -1 23 -5 18 -12 -4 -7 -26 -9 -58 -6 -28 3 -43 3 -33 0 34
-9 16 -20 -38 -22 -63 -2 -151 36 -197 86 -29 31 -71 144 -87 237 -11 59 -14
130 -4 93 3 -11 11 -16 18 -13z m-1716 -104 c6 -52 14 -106 17 -120 4 -15 3
-22 -2 -17 -5 5 -9 12 -10 15 0 4 -3 14 -6 22 -11 29 -28 134 -28 174 0 71 18
26 29 -74z m2441 80 c8 -5 12 -12 8 -15 -9 -9 -48 4 -48 16 0 12 21 11 40 -1z
m1590 0 c0 -5 -4 -10 -10 -10 -5 0 -10 5 -10 10 0 6 5 10 10 10 6 0 10 -4 10
-10z m-3997 -40 c3 -11 1 -23 -4 -26 -5 -3 -9 6 -9 20 0 31 6 34 13 6z m3984
-32 c-3 -8 -6 -5 -6 6 -1 11 2 17 5 13 3 -3 4 -12 1 -19z m274 -19 c-6 -24 -9
-28 -10 -12 -1 24 9 56 16 50 2 -3 0 -20 -6 -38z m-3911 -34 c-6 -7 -10 -17
-9 -21 3 -18 -1 -97 -5 -93 -2 2 -7 42 -11 88 l-7 83 22 -22 c16 -16 19 -25
10 -35z m3834 18 c-2 -64 -4 -73 -14 -73 -11 0 -14 93 -3 103 14 14 18 6 17
-30z m-3967 7 c3 -11 10 -20 15 -20 5 0 6 -5 3 -11 -4 -6 -13 -8 -21 -5 -9 3
-14 -1 -14 -14 0 -25 17 -35 35 -20 12 10 15 9 15 -4 0 -9 -7 -16 -15 -16 -8
0 -15 -1 -16 -2 0 -2 -3 -32 -5 -68 -3 -36 -7 -71 -9 -77 -2 -7 0 -13 5 -13 6
0 10 -4 10 -10 0 -5 -7 -10 -15 -10 -8 0 -15 -7 -15 -15 0 -21 -20 -19 -21 3
0 13 -2 12 -9 -5 -15 -36 -37 -17 -59 50 -26 76 -26 112 -2 143 25 32 35 18
50 -76 7 -41 14 -76 16 -79 14 -13 20 22 22 122 2 152 2 147 14 147 6 0 13 -9
16 -20z m1740 -2 c-3 -8 -6 -5 -6 6 -1 11 2 17 5 13 3 -3 4 -12 1 -19z m2270
-15 c-3 -10 -5 -4 -5 12 0 17 2 24 5 18 2 -7 2 -21 0 -30z m-4220 5 c-3 -8 -6
-5 -6 6 -1 11 2 17 5 13 3 -3 4 -12 1 -19z m1912 9 c10 17 10 17 11 -3 0 -14
-8 -24 -22 -28 -36 -9 -38 -8 -38 21 0 25 1 25 19 9 18 -17 20 -17 30 1z
m-293 -60 c-2 -17 -4 -35 -5 -39 0 -5 -12 -8 -26 -8 -28 0 -32 18 -14 53 25
47 49 44 45 -6z m-1606 -5 c0 -15 -2 -15 -10 -2 -13 20 -13 33 0 25 6 -3 10
-14 10 -23z m1630 3 c0 -8 -2 -15 -4 -15 -2 0 -6 7 -10 15 -3 8 -1 15 4 15 6
0 10 -7 10 -15z m777 -12 c-9 -9 -19 -14 -23 -11 -10 10 6 28 24 28 15 0 15
-1 -1 -17z m-2527 -47 c4 -21 4 -36 -1 -36 -5 0 -9 4 -9 9 0 5 -3 24 -6 42 -9
45 5 31 16 -15z m2759 14 c23 -6 72 -13 111 -15 86 -5 115 -18 98 -45 -10 -15
-16 -17 -32 -7 -34 18 -166 26 -213 12 -33 -10 -40 -10 -37 0 3 7 -2 15 -11
19 -15 5 -14 8 2 31 10 13 23 23 30 20 6 -2 30 -9 52 -15z m-1129 -10 c0 -8
-74 -20 -121 -20 -16 0 -29 -4 -29 -9 0 -4 -11 -6 -25 -3 -14 2 -32 -1 -40 -8
-9 -7 -18 -10 -21 -7 -7 6 49 37 83 46 33 9 153 10 153 1z m715 0 c3 -6 -4
-10 -17 -10 -18 0 -20 2 -8 10 19 12 18 12 25 0z m215 -11 c0 -11 -7 -19 -15
-19 -8 0 -15 -8 -15 -18 0 -10 -9 -25 -20 -35 -27 -23 -37 -22 -16 1 9 11 16
27 15 38 -4 41 1 52 26 52 18 0 25 -6 25 -19z m-764 -27 c7 -18 9 -32 4 -32
-6 0 -10 8 -11 18 0 11 -6 5 -16 -15 -19 -37 -32 -42 -88 -32 -55 10 -178 4
-204 -10 -17 -10 -21 -9 -21 4 0 10 -7 15 -17 13 -13 -2 -17 -13 -18 -40 0
-46 -10 -56 -34 -34 -19 17 -20 17 -31 -3 -14 -27 -30 -18 -30 16 0 30 42 103
48 84 2 -7 -1 -18 -7 -24 -27 -27 -8 -32 21 -6 17 17 50 35 74 41 24 7 41 15
38 20 -3 4 1 8 10 8 8 0 16 -5 18 -11 3 -8 20 -7 61 2 31 8 57 16 57 19 0 3
23 5 50 4 28 0 53 3 56 8 10 16 25 4 40 -30z m2254 -2 c0 -5 -4 -10 -10 -10
-5 0 -10 5 -10 10 0 6 5 10 10 10 6 0 10 -4 10 -10z m-4040 -26 c0 -8 -5 -12
-10 -9 -6 4 -8 11 -5 16 9 14 15 11 15 -7z m4194 1 c3 -8 1 -15 -4 -15 -6 0
-10 7 -10 15 0 8 2 15 4 15 2 0 6 -7 10 -15z m-179 -24 c3 -5 1 -12 -5 -16 -5
-3 -10 1 -10 9 0 18 6 21 15 7z m-3270 -11 c-3 -5 -12 -10 -20 -10 -8 0 -17 5
-20 10 -4 6 5 10 20 10 15 0 24 -4 20 -10z m3452 -22 c-3 -8 -6 -5 -6 6 -1 11
2 17 5 13 3 -3 4 -12 1 -19z m-2500 6 c-3 -3 -12 -4 -19 -1 -8 3 -5 6 6 6 11
1 17 -2 13 -5z m633 -4 c7 -1 -22 -17 -46 -24 -16 -5 -23 -2 -26 11 -4 15 1
18 31 16 20 -1 38 -2 41 -3z m-2200 -37 c0 -32 -5 -28 -14 10 -4 19 -3 26 4
22 5 -3 10 -18 10 -32z m2668 -67 c23 -16 40 -31 38 -34 -8 -7 -67 19 -104 45
-27 21 -31 27 -21 40 11 13 15 12 28 -4 9 -10 35 -32 59 -47z m1172 34 c-6
-12 -14 -19 -17 -17 -2 3 1 15 7 27 6 12 14 19 17 17 2 -3 -1 -15 -7 -27z
m-3920 0 c0 -5 -5 -10 -11 -10 -5 0 -7 5 -4 10 3 6 8 10 11 10 2 0 4 -4 4 -10z
m1600 -35 c-19 -14 -39 -25 -44 -25 -6 0 -2 7 9 15 11 8 25 19 30 24 6 6 16
10 24 11 8 0 0 -11 -19 -25z m2234 3 c-9 -31 -12 -34 -26 -20 -8 8 -8 15 2 27
19 22 32 18 24 -7z m53 -43 c-30 -47 -42 -44 -17 5 12 23 25 38 30 35 5 -3 -1
-21 -13 -40z m-3862 26 c3 -5 1 -12 -4 -15 -5 -3 -11 1 -15 9 -6 16 9 21 19 6z
m2835 -11 c0 -5 -5 -10 -11 -10 -5 0 -7 5 -4 10 3 6 8 10 11 10 2 0 4 -4 4
-10z m-1326 -15 c-4 -8 -19 -15 -34 -15 -44 0 -46 18 -3 23 21 2 39 4 40 5 1
1 0 -5 -3 -13z m1296 1 c0 -3 -4 -8 -10 -11 -5 -3 -10 -1 -10 4 0 6 5 11 10
11 6 0 10 -2 10 -4z m-2271 -21 c8 0 16 -6 18 -12 6 -17 -29 -17 -45 -1 -16
16 -15 31 1 21 6 -4 18 -8 26 -8z m-430 -35 c0 -10 -3 -8 -9 5 -12 27 -12 43
0 25 5 -8 9 -22 9 -30z m141 -48 c-7 -13 -9 -8 -9 23 0 35 1 37 10 17 6 -15 5
-30 -1 -40z m500 48 c0 -5 -4 -10 -10 -10 -5 0 -10 5 -10 10 0 6 5 10 10 10 6
0 10 -4 10 -10z m3282 -50 c-17 -30 -32 -39 -32 -20 0 6 4 10 9 10 5 0 13 9
16 20 3 11 10 20 15 20 5 0 1 -13 -8 -30z m-215 -2 c-3 -8 -6 -5 -6 6 -1 11 2
17 5 13 3 -3 4 -12 1 -19z m-3279 -29 c12 -11 26 -18 31 -15 13 9 31 -18 36
-53 6 -51 -22 -35 -74 42 -33 49 -30 61 7 26z m-72 -67 c55 -84 61 -101 22
-59 -19 20 -40 37 -46 37 -7 0 -9 -25 -6 -72 l4 -73 -16 63 c-16 66 -12 118 8
106 6 -4 4 3 -5 17 -20 28 -22 40 -4 33 7 -2 26 -26 43 -52z m-109 -33 c7 -7
9 -26 6 -45 -5 -28 -3 -33 10 -28 11 4 14 0 12 -13 -2 -10 -4 -24 -4 -32 -1
-9 -13 -2 -31 17 -21 22 -30 42 -30 65 0 46 14 59 37 36z m3071 -9 c-7 -11
-16 -20 -20 -20 -13 0 -9 28 5 33 23 10 27 7 15 -13z m-1551 -26 c-8 -9 -155
-34 -199 -34 -25 0 -40 -6 -47 -17 -9 -16 -10 -16 -11 -2 0 30 31 43 114 50
121 9 150 10 143 3z m206 -1 c-7 -2 -21 -2 -30 0 -10 3 -4 5 12 5 17 0 24 -2
18 -5z m137 3 c0 -3 -4 -8 -10 -11 -5 -3 -10 -1 -10 4 0 6 5 11 10 11 6 0 10
-2 10 -4z m1513 -47 c-10 -17 -24 -33 -30 -36 -7 -3 -11 -8 -8 -13 2 -4 -25
-37 -60 -74 -62 -65 -78 -85 -54 -70 7 4 10 1 7 -7 -5 -15 -48 -22 -48 -7 0 5
11 19 25 32 14 13 25 28 25 33 0 5 16 23 35 40 19 17 35 41 35 52 0 12 5 21
10 21 6 0 10 7 10 15 0 8 6 15 14 15 8 0 16 7 20 15 3 8 13 15 21 15 14 0 14
-4 -2 -31z m-1210 -6 c15 -17 10 -18 -80 -19 -53 0 -87 3 -77 7 95 34 134 37
157 12z m1052 -53 c-3 -5 -12 -10 -18 -10 -7 0 -6 4 3 10 19 12 23 12 15 0z
m-1238 -32 c-3 -7 -5 -2 -5 12 0 14 2 19 5 13 2 -7 2 -19 0 -25z m1283 8 c0
-2 -8 -10 -17 -17 -16 -13 -17 -12 -4 4 13 16 21 21 21 13z m-1863 -108 c-2
-13 -4 -3 -4 22 0 25 2 35 4 23 2 -13 2 -33 0 -45z m274 15 c-8 -15 -10 -15
-11 -2 0 17 10 32 18 25 2 -3 -1 -13 -7 -23z m1234 17 c-3 -5 -10 -10 -16 -10
-5 0 -9 5 -9 10 0 6 7 10 16 10 8 0 12 -4 9 -10z m-2127 -20 c2 -5 11 -6 20
-3 11 2 21 -4 27 -19 6 -13 22 -29 38 -36 15 -7 27 -20 27 -28 0 -8 5 -12 10
-9 6 3 10 1 10 -5 0 -7 -7 -9 -17 -6 -26 10 -149 94 -163 112 -12 13 -10 14
16 8 16 -4 30 -10 32 -14z m-196 -8 c7 2 13 -7 14 -19 1 -12 11 -34 23 -48 11
-15 21 -34 21 -42 0 -9 6 -13 14 -10 15 6 46 -22 46 -41 0 -15 -27 -16 -32 0
-2 6 -15 13 -29 15 -13 2 -40 12 -61 23 -20 10 -39 16 -42 13 -3 -4 -6 0 -6 9
0 8 -21 29 -46 47 -25 18 -43 35 -41 37 2 2 29 -7 61 -22 73 -33 95 -25 34 12
-27 16 -48 32 -48 35 0 4 18 3 40 -2 22 -5 45 -8 52 -7z m2283 -1 c-3 -6 -11
-11 -17 -11 -6 0 -6 6 2 15 14 17 26 13 15 -4z m293 -66 c-6 -14 -14 -25 -18
-25 -4 0 -10 -9 -13 -20 -3 -11 -13 -23 -24 -27 -10 -4 -23 -14 -30 -22 -11
-14 -12 -14 -13 0 0 9 6 19 13 22 8 3 22 21 31 41 9 20 23 36 31 36 8 0 15 5
15 10 0 6 4 10 10 10 6 0 5 -10 -2 -25z m-2684 -89 c22 -20 42 -33 45 -30 3 3
-7 17 -22 30 -15 13 -24 24 -19 24 4 0 21 -13 37 -30 16 -16 23 -30 16 -30 -7
0 -9 -4 -6 -10 11 -18 -4 -10 -61 33 -32 23 -61 41 -66 39 -5 -1 -7 2 -4 7 4
5 2 12 -4 16 -5 3 -10 11 -10 16 0 12 38 -15 94 -65z m2096 55 c0 -6 -4 -13
-10 -16 -5 -3 -10 1 -10 9 0 9 5 16 10 16 6 0 10 -4 10 -9z m-1829 -45 c7 -14
17 -22 25 -19 15 6 17 2 8 -20 -4 -11 -13 -13 -32 -8 -22 6 -27 14 -29 39 -2
38 13 42 28 8z m704 4 c-3 -5 -10 -10 -16 -10 -5 0 -9 5 -9 10 0 6 7 10 16 10
8 0 12 -4 9 -10z m-1070 -70 c18 -19 17 -20 -3 -20 -15 0 -22 6 -22 20 0 11 2
20 3 20 2 0 12 -9 22 -20z m2689 -5 c-4 -8 -8 -15 -10 -15 -2 0 -4 7 -4 15 0
8 4 15 10 15 5 0 7 -7 4 -15z m-2464 -21 c0 -2 -7 -4 -15 -4 -8 0 -15 4 -15
10 0 5 7 7 15 4 8 -4 15 -8 15 -10z m2365 -4 c-10 -11 -55 -39 -99 -61 -118
-60 -176 -92 -221 -123 -22 -15 -41 -23 -43 -17 -4 12 21 41 35 41 5 0 17 9
26 21 10 11 25 18 33 15 9 -3 12 -1 9 4 -3 6 -2 10 3 10 4 0 17 9 29 19 29 27
76 49 92 43 8 -3 11 0 7 7 -4 7 0 11 11 11 11 0 23 4 29 9 5 6 22 12 38 15 16
3 34 10 40 16 19 19 29 10 11 -10z m-195 0 c0 -5 -4 -10 -10 -10 -5 0 -10 5
-10 10 0 6 5 10 10 10 6 0 10 -4 10 -10z m270 -19 c0 -6 -4 -13 -10 -16 -5 -3
-10 1 -10 9 0 9 5 16 10 16 6 0 10 -4 10 -9z m-1357 -38 c-7 -2 -19 -2 -25 0
-7 3 -2 5 12 5 14 0 19 -2 13 -5z m1286 -97 c-22 -20 -22 -20 -6 0 9 11 17 27
18 35 0 11 2 11 6 0 3 -7 -5 -23 -18 -35z m-1441 22 c-7 -19 -43 -21 -58 -3
-11 13 -8 15 25 15 25 0 35 -4 33 -12z m-486 -138 c10 0 17 4 13 10 -3 5 7 5
25 -1 16 -6 30 -15 30 -21 0 -5 -4 -7 -9 -3 -5 3 -12 1 -16 -5 -4 -6 -13 -7
-23 -1 -9 4 -35 12 -57 15 -22 4 -60 17 -85 28 -25 12 -48 20 -52 20 -5 -1 -8
2 -8 8 0 6 -6 10 -12 10 -13 1 -78 55 -78 64 0 3 57 -24 126 -59 70 -36 135
-65 146 -65z m1249 50 c6 0 9 -15 7 -32 -3 -28 -10 -36 -53 -58 -28 -14 -77
-51 -109 -82 -32 -32 -61 -58 -66 -58 -4 0 -15 -15 -23 -33 -18 -37 -54 -73
-63 -64 -9 9 62 142 95 180 54 63 127 127 144 127 10 0 20 7 24 16 3 8 12 13
20 10 8 -3 19 -6 24 -6z m289 -10 c0 -5 -5 -10 -11 -10 -5 0 -7 5 -4 10 3 6 8
10 11 10 2 0 4 -4 4 -10z m-1049 -47 c26 -18 49 -43 53 -55 6 -25 -10 -50 -22
-32 -4 6 -29 21 -57 34 -27 13 -56 30 -63 37 -7 7 -29 13 -48 13 -38 0 -42 6
-16 26 31 25 102 14 153 -23z m1009 -2 c0 -6 -4 -13 -10 -16 -5 -3 -10 1 -10
9 0 9 5 16 10 16 6 0 10 -4 10 -9z m-90 -40 c0 -30 -142 -107 -239 -128 -29
-7 -20 13 12 28 12 5 42 22 67 38 25 16 53 30 63 30 9 1 17 5 17 9 0 11 39 30
63 31 9 1 17 -3 17 -8z m70 -5 c0 -15 -20 -44 -20 -29 0 6 -2 18 -5 26 -4 8 0
14 10 14 8 0 15 -5 15 -11z m-1126 -38 c39 -22 44 -27 21 -22 -16 4 -40 11
-52 15 -14 5 -23 5 -23 -1 0 -6 -5 -10 -11 -10 -5 0 -7 5 -4 10 4 6 -5 10 -19
10 -19 0 -26 5 -26 20 0 17 5 19 31 13 17 -3 54 -19 83 -35z m294 -43 c-11
-12 -38 8 -38 28 l0 21 22 -21 c12 -13 19 -25 16 -28z m-183 -19 c11 -8 15
-16 8 -16 -6 0 -15 5 -18 10 -3 6 -17 10 -31 10 -23 0 -31 10 -18 23 7 7 27
-2 59 -27z m121 -49 c13 -13 -22 -7 -54 9 -18 8 -32 17 -32 19 0 5 78 -20 86
-28z"/>
<path d="M2598 4473 c6 -2 18 -2 25 0 6 3 1 5 -13 5 -14 0 -19 -2 -12 -5z"/>
<path d="M3135 4240 c3 -5 16 -10 28 -9 21 0 21 1 2 9 -28 12 -37 12 -30 0z"/>
<path d="M824 3774 c-18 -14 -18 -15 4 -4 12 6 22 13 22 15 0 8 -5 6 -26 -11z"/>
<path d="M1820 3789 c0 -5 5 -7 10 -4 6 3 10 8 10 11 0 2 -4 4 -10 4 -5 0 -10
-5 -10 -11z"/>
<path d="M1615 3661 c-3 -5 -2 -12 3 -15 5 -3 9 1 9 9 0 17 -3 19 -12 6z"/>
<path d="M1716 3341 c-10 -15 23 -48 33 -32 3 4 13 11 21 15 8 3 3 4 -12 1
-20 -4 -27 -1 -30 12 -3 15 -5 15 -12 4z"/>
<path d="M1606 3002 c-2 -4 -1 -14 5 -22 7 -12 9 -10 9 8 0 23 -5 28 -14 14z"/>
<path d="M1581 2956 c-9 -11 -7 -15 9 -19 13 -3 20 0 20 8 0 21 -16 27 -29 11z"/>
<path d="M2661 2903 c-1 -13 -7 -23 -15 -23 -7 0 -16 -9 -19 -21 -4 -13 -1
-18 6 -15 7 3 20 9 30 12 19 7 20 18 7 49 -8 19 -9 19 -9 -2z"/>
<path d="M1515 2870 c-3 -5 1 -10 10 -10 9 0 13 5 10 10 -3 6 -8 10 -10 10 -2
0 -7 -4 -10 -10z"/>
<path d="M1886 2826 c3 -8 12 -12 20 -9 21 8 17 23 -6 23 -13 0 -18 -5 -14
-14z"/>
<path d="M2423 2763 c9 -2 25 -2 35 0 9 3 1 5 -18 5 -19 0 -27 -2 -17 -5z"/>
<path d="M1517 2613 c-10 -9 -9 -43 1 -43 5 0 14 11 20 25 9 20 9 25 -2 25 -7
0 -16 -3 -19 -7z"/>
<path d="M1585 2600 c3 -5 8 -10 11 -10 2 0 4 5 4 10 0 6 -5 10 -11 10 -5 0
-7 -4 -4 -10z"/>
<path d="M1566 2513 c-6 -14 -5 -15 5 -6 7 7 10 15 7 18 -3 3 -9 -2 -12 -12z"/>
<path d="M1586 2503 c-3 -3 -6 -11 -6 -17 0 -6 4 -5 9 2 7 11 9 11 14 -2 4
-10 1 -16 -8 -16 -8 0 -15 -5 -15 -11 0 -5 5 -7 10 -4 6 3 10 0 10 -7 0 -7 13
-31 28 -53 l27 -41 0 74 0 75 -31 3 c-17 2 -34 1 -38 -3z"/>
<path d="M420 3191 c-8 -6 -17 -8 -21 -5 -4 2 -9 -3 -13 -11 -3 -8 -13 -15
-22 -15 -10 0 -14 -3 -11 -6 3 -4 0 -16 -8 -28 -8 -11 -15 -27 -15 -35 0 -11
4 -10 14 5 23 33 69 79 91 92 11 6 16 11 10 12 -5 0 -17 -4 -25 -9z"/>
<path d="M330 2869 c0 -5 5 -7 10 -4 6 3 10 8 10 11 0 2 -4 4 -10 4 -5 0 -10
-5 -10 -11z"/>
<path d="M237 2583 c-4 -3 -7 -16 -6 -27 0 -19 1 -19 10 3 10 24 8 36 -4 24z"/>
<path d="M200 2500 c0 -8 5 -22 10 -30 9 -13 10 -13 10 0 0 8 -5 22 -10 30 -9
13 -10 13 -10 0z"/>
<path d="M3880 1590 c-6 -11 -8 -20 -6 -20 3 0 10 9 16 20 6 11 8 20 6 20 -3
0 -10 -9 -16 -20z"/>
<path d="M3846 1544 c-5 -14 -4 -15 9 -4 17 14 19 20 6 20 -5 0 -12 -7 -15
-16z"/>
<path d="M2848 813 c7 -3 16 -2 19 1 4 3 -2 6 -13 5 -11 0 -14 -3 -6 -6z"/>
<path d="M2200 710 c0 -5 7 -10 16 -10 8 0 12 5 9 10 -3 6 -10 10 -16 10 -5 0
-9 -4 -9 -10z"/>
<path d="M2196 2415 c4 -8 10 -15 14 -15 4 0 13 7 20 15 11 13 8 15 -13 15
-19 0 -25 -4 -21 -15z"/>
<path d="M2750 2419 c0 -5 5 -7 10 -4 6 3 10 8 10 11 0 2 -4 4 -10 4 -5 0 -10
-5 -10 -11z"/>
<path d="M3065 2270 c-3 -5 -2 -10 4 -10 5 0 13 5 16 10 3 6 2 10 -4 10 -5 0
-13 -4 -16 -10z"/>
<path d="M2084 1809 c-3 -6 -2 -15 4 -21 7 -7 14 -3 21 11 10 17 9 21 -3 21
-8 0 -18 -5 -22 -11z"/>
<path d="M1638 583 c7 -3 16 -2 19 1 4 3 -2 6 -13 5 -11 0 -14 -3 -6 -6z"/>
<path d="M2305 4660 c-13 -6 -5 -7 25 -3 25 3 47 7 49 9 9 8 -55 2 -74 -6z"/>
<path d="M2645 4640 c17 -4 41 -8 55 -8 l25 0 -25 8 c-14 4 -38 8 -55 8 l-30
0 30 -8z"/>
<path d="M1796 4595 c-21 -7 -44 -19 -50 -26 -8 -9 -7 -10 7 -5 10 3 24 6 30
6 7 0 23 9 37 20 29 23 27 24 -24 5z"/>
<path d="M1708 4593 c7 -3 16 -2 19 1 4 3 -2 6 -13 5 -11 0 -14 -3 -6 -6z"/>
<path d="M2920 4577 c0 -9 14 -14 43 -15 l42 0 -30 13 c-38 18 -55 18 -55 2z"/>
<path d="M1626 4537 c-48 -17 -83 -33 -77 -35 6 -2 32 3 57 12 26 9 49 14 53
12 3 -2 20 7 36 20 17 13 28 24 25 23 -3 0 -45 -14 -94 -32z"/>
<path d="M3090 4533 c19 -9 40 -17 46 -19 6 -1 22 -5 35 -9 19 -5 21 -4 9 4
-13 10 -31 16 -108 37 -9 2 -1 -3 18 -13z"/>
<path d="M1495 4520 c-3 -6 1 -7 9 -4 18 7 21 14 7 14 -6 0 -13 -4 -16 -10z"/>
<path d="M1376 4471 c-4 -5 3 -7 14 -4 23 6 26 13 6 13 -8 0 -17 -4 -20 -9z"/>
<path d="M1400 4445 c-14 -8 -19 -14 -10 -14 8 0 24 6 34 14 25 19 9 19 -24 0z"/>
<path d="M1280 4423 c-142 -81 -243 -143 -302 -188 -37 -27 -85 -63 -108 -80
-32 -23 -183 -171 -271 -265 -88 -94 -189 -233 -263 -364 -49 -84 -2 -35 59
63 6 9 25 35 43 58 17 23 32 46 32 52 0 6 4 11 10 11 5 0 16 12 24 28 8 15 15
22 16 16 0 -7 -16 -36 -35 -64 -20 -29 -34 -56 -33 -60 2 -4 17 -1 33 6 17 7
24 13 18 14 -7 0 -13 5 -13 11 0 6 10 9 23 7 21 -4 24 -1 21 24 -2 15 1 28 7
28 6 0 8 -4 5 -9 -3 -5 1 -12 10 -15 20 -8 65 24 84 59 12 23 12 28 0 35 -24
15 -31 12 -26 -14 4 -20 -1 -27 -26 -35 -17 -6 -35 -11 -39 -11 -15 0 -10 28
7 34 8 3 12 2 9 -4 -3 -6 -1 -10 4 -10 6 0 11 9 11 19 0 11 5 21 12 23 6 2 13
14 15 27 2 13 -1 20 -7 16 -19 -11 -10 3 25 41 31 35 34 37 29 14 -5 -22 -4
-23 6 -7 6 9 15 15 20 12 4 -3 7 5 6 18 -3 25 16 59 30 56 20 -3 34 2 34 12 0
8 -6 7 -17 -2 -15 -11 -16 -11 -6 1 7 7 22 15 33 17 24 4 96 70 87 79 -4 4
-13 1 -22 -6 -8 -7 -15 -9 -14 -4 1 21 242 213 267 214 6 0 12 4 12 9 0 5 19
19 43 30 75 39 222 131 207 130 -8 -1 -35 -12 -60 -26z m-710 -623 c-10 -19
-30 -28 -30 -14 0 6 30 33 38 34 1 0 -2 -9 -8 -20z"/>
<path d="M3320 4443 c8 -3 22 -11 30 -17 13 -10 13 -9 1 7 -7 9 -21 17 -30 16
-13 0 -14 -1 -1 -6z"/>
<path d="M3370 4420 c0 -5 5 -10 11 -10 5 0 7 5 4 10 -3 6 -8 10 -11 10 -2 0
-4 -4 -4 -10z"/>
<path d="M1297 4390 c-26 -16 -50 -30 -53 -30 -10 0 -124 -73 -121 -77 7 -6
73 25 86 41 7 9 37 27 65 40 29 14 59 32 66 41 18 22 10 19 -43 -15z"/>
<path d="M1947 4383 c-4 -3 -32 -7 -62 -8 -31 -1 -61 -7 -67 -13 -9 -9 10 -11
82 -7 112 7 132 12 110 25 -17 11 -54 13 -63 3z"/>
<path d="M1556 4365 c-17 -13 -17 -15 -3 -21 9 -3 23 -4 32 -2 13 2 14 6 3 20
-11 15 -15 15 -32 3z"/>
<path d="M1060 4245 c-7 -9 -10 -18 -7 -21 3 -3 10 4 17 15 13 25 8 27 -10 6z"/>
<path d="M1014 4215 c-10 -8 -14 -14 -9 -15 15 0 40 18 34 24 -3 3 -14 -1 -25
-9z"/>
<path d="M880 4115 c-13 -14 -19 -25 -13 -25 5 0 20 11 33 25 13 14 19 25 13
25 -5 0 -20 -11 -33 -25z"/>
<path d="M3890 3985 c7 -8 16 -12 21 -9 16 9 10 20 -12 21 -17 2 -18 -1 -9
-12z"/>
<path d="M700 3939 c0 -5 5 -7 10 -4 6 3 10 8 10 11 0 2 -4 4 -10 4 -5 0 -10
-5 -10 -11z"/>
<path d="M426 3551 c-4 -7 -3 -18 3 -25 11 -13 5 -26 -11 -26 -5 0 -6 6 -2 13
5 7 0 6 -11 -3 -17 -14 -17 -15 -1 -18 10 -2 15 -10 12 -18 -3 -8 -1 -14 4
-14 6 0 10 9 10 20 0 10 6 23 14 27 12 7 12 12 2 32 -9 16 -16 20 -20 12z"/>
<path d="M292 3449 c-15 -24 -13 -32 7 -20 7 5 11 16 9 25 -2 14 -5 13 -16 -5z"/>
<path d="M51 2734 c0 -11 3 -14 6 -6 3 7 2 16 -1 19 -3 4 -6 -2 -5 -13z"/>
<path d="M42 2640 c0 -14 2 -19 5 -12 2 6 2 18 0 25 -3 6 -5 1 -5 -13z"/>
<path d="M31 2584 c0 -11 3 -14 6 -6 3 7 2 16 -1 19 -3 4 -6 -2 -5 -13z"/>
<path d="M32 2333 l0 -68 14 38 c10 30 11 44 2 60 -6 12 -10 24 -9 25 2 2 0 6
-2 9 -3 2 -5 -26 -5 -64z"/>
</g>
</svg>
